<?xml version="1.0" standalone="no"?>
<!DOCTYPE svg PUBLIC "-//W3C//DTD SVG 20010904//EN"
 "http://www.w3.org/TR/2001/REC-SVG-20010904/DTD/svg10.dtd">
<svg version="1.0" xmlns="http://www.w3.org/2000/svg"
 width="1920.000000pt" height="1351.000000pt" viewBox="0 0 1920.000000 1351.000000"
 preserveAspectRatio="xMidYMid meet">

<g transform="translate(0.000000,1351.000000) scale(0.100000,-0.100000)"
fill="#000000" stroke="none">
<path d="M9377 13499 c-30 -17 -39 -56 -22 -90 9 -16 21 -29 27 -29 8 0 9 -34
5 -119 -4 -65 -9 -125 -12 -133 -3 -8 -24 -19 -47 -24 -37 -8 -42 -13 -54 -54
-22 -80 -42 -154 -49 -184 l-6 -29 -75 6 c-85 6 -80 11 -119 -101 l-23 -65
-63 -1 -64 -1 -29 -59 c-15 -33 -29 -69 -30 -80 -1 -18 -7 -21 -41 -21 -36 0
-40 -3 -43 -27 -3 -26 -1 -28 31 -28 34 0 35 -1 55 -67 45 -147 56 -204 37
-197 -6 3 -31 -11 -56 -29 -24 -19 -125 -87 -224 -153 -99 -65 -182 -121 -185
-125 -3 -3 -24 -17 -47 -30 -129 -74 -203 -122 -198 -129 6 -10 29 -4 63 18
28 18 30 16 25 -29 -5 -36 -5 -36 -38 -25 -18 7 -40 17 -48 24 -13 11 -23 9
-59 -15 -24 -15 -56 -35 -73 -44 -16 -9 -46 -26 -65 -38 -19 -11 -42 -24 -50
-28 -8 -3 -65 -35 -127 -70 -62 -35 -114 -63 -116 -63 -15 0 -115 -69 -109
-75 4 -5 1 -5 -6 -1 -15 9 -374 -163 -367 -175 3 -4 -1 -6 -8 -5 -22 2 -246
-97 -240 -107 3 -6 1 -7 -5 -3 -13 8 -65 -11 -59 -21 3 -5 -9 -9 -25 -10 -17
-1 -35 -7 -42 -12 -6 -5 -48 -24 -93 -41 -46 -18 -83 -36 -83 -39 0 -4 -11 -8
-23 -9 -13 -1 -55 -15 -93 -31 -38 -16 -141 -54 -229 -84 -88 -30 -171 -59
-185 -65 -32 -13 -189 -61 -215 -66 -48 -9 -75 -19 -71 -25 2 -3 -12 -7 -31
-8 -20 -1 -48 -6 -62 -12 -14 -6 -37 -13 -51 -15 -14 -3 -48 -12 -75 -20 -28
-8 -67 -18 -88 -21 -22 -4 -56 -13 -77 -20 -21 -7 -40 -12 -43 -9 -2 2 -24 -3
-48 -11 -24 -9 -58 -18 -76 -20 -17 -2 -49 -9 -70 -14 -21 -6 -56 -13 -78 -16
-22 -3 -60 -10 -85 -16 -25 -5 -56 -12 -70 -14 -107 -20 -150 -28 -185 -31
-22 -2 -62 -8 -90 -14 -55 -10 -131 -21 -155 -21 -8 0 -58 -7 -110 -14 -52 -8
-135 -17 -185 -20 -49 -3 -144 -10 -210 -16 -150 -14 -943 -13 -1068 1 -51 6
-128 13 -172 15 -104 6 -424 49 -570 77 -33 6 -72 12 -86 13 -15 2 -64 10
-110 20 -78 15 -119 25 -301 71 -37 9 -74 14 -82 11 -9 -4 -16 -2 -16 3 0 9
-32 22 -60 24 -25 3 -407 124 -470 149 -14 6 -32 11 -40 13 -8 2 -23 7 -35 13
-71 34 -135 61 -145 61 -15 0 -29 41 -35 103 -3 29 -9 67 -13 86 -6 29 -4 39
15 57 13 13 23 34 23 47 0 31 -39 67 -73 67 -61 0 -92 -83 -42 -116 28 -18 31
-46 18 -201 -5 -73 -8 -83 -25 -83 -10 0 -31 -6 -47 -14 -25 -13 -29 -23 -44
-113 -10 -54 -18 -109 -20 -123 -2 -24 -7 -26 -87 -35 l-84 -10 -13 -45 c-7
-25 -20 -64 -29 -87 -15 -42 -17 -43 -60 -43 -25 0 -43 -4 -40 -8 3 -5 -1 -9
-9 -9 -8 0 -12 4 -9 9 3 4 2 8 -3 8 -13 0 -68 -154 -60 -167 3 -5 -11 -8 -30
-9 -36 -1 -53 -15 -49 -42 2 -11 15 -16 45 -16 40 -1 44 -4 55 -36 29 -79 98
-257 111 -287 8 -17 15 -34 15 -38 0 -4 6 -21 14 -38 7 -18 21 -54 31 -82 23
-65 94 -248 155 -400 26 -66 55 -138 63 -160 l15 -40 50 3 51 4 -6 -35 c-7
-45 27 -81 72 -74 36 5 57 -1 49 -15 -3 -5 1 -85 10 -176 30 -294 45 -457 44
-472 -1 -48 24 -381 31 -412 5 -21 6 -38 2 -38 -4 0 1 -64 11 -142 10 -79 18
-170 19 -203 0 -33 7 -112 15 -175 8 -63 14 -142 14 -177 0 -34 5 -65 10 -68
6 -4 8 -10 5 -15 -6 -9 -1 -69 31 -385 8 -82 17 -184 20 -225 2 -41 9 -109 14
-150 16 -125 23 -204 21 -230 -1 -14 3 -59 9 -100 5 -41 12 -115 15 -165 3
-49 10 -126 15 -170 5 -44 12 -116 15 -160 3 -44 12 -140 20 -213 8 -74 15
-175 15 -225 0 -108 10 -228 19 -223 3 2 6 -19 6 -47 0 -69 12 -233 25 -334 6
-46 11 -100 11 -120 1 -21 7 -94 15 -163 7 -69 16 -163 19 -210 2 -47 9 -121
15 -164 7 -54 7 -83 0 -90 -14 -14 -13 -119 5 -486 8 -173 19 -421 25 -550 6
-130 15 -261 19 -293 l8 -57 -31 -5 c-17 -2 -44 -6 -61 -7 -27 -3 -30 -7 -33
-41 -3 -38 -3 -39 25 -33 15 3 98 11 183 17 153 11 186 19 225 56 19 19 20 19
52 -34 17 -29 35 -62 38 -72 7 -22 130 -141 145 -141 6 0 10 -4 10 -8 0 -5
-46 -19 -102 -31 -198 -44 -291 -78 -341 -128 -21 -19 -37 -45 -37 -57 0 -32
57 -82 126 -110 75 -31 274 -84 334 -90 25 -3 68 -9 97 -15 108 -21 509 -51
773 -57 281 -6 759 7 930 26 205 23 254 30 264 40 7 7 0 10 -21 10 -17 0 -89
12 -160 26 -70 14 -148 30 -173 35 -179 36 -582 154 -694 203 -17 8 -67 28
-111 45 -94 37 -210 100 -245 133 -23 22 -30 23 -144 20 -66 -2 -127 -7 -136
-11 -8 -5 -44 -11 -80 -15 l-66 -6 -29 53 c-27 51 -30 53 -59 47 -20 -4 -40
-1 -57 9 -40 24 -109 87 -109 100 0 6 -3 11 -7 11 -8 0 -42 53 -43 68 -1 4 -7
17 -15 28 -41 63 -65 148 -65 231 0 77 -8 100 -26 71 -11 -17 -19 13 -34 117
-6 50 -18 128 -26 174 -9 46 -17 104 -20 130 -2 25 -11 82 -18 126 -8 44 -22
134 -31 200 -34 237 -43 278 -67 298 -13 10 -18 16 -11 13 13 -7 12 23 -12
224 -8 69 -17 190 -20 270 -3 80 -10 183 -16 230 -5 47 -11 127 -14 179 -2 52
-8 97 -12 100 -4 3 -9 58 -11 121 -2 63 -7 117 -10 120 -4 3 -7 33 -8 68 0 34
-5 67 -10 72 -6 6 -8 29 -5 53 4 23 5 52 3 64 -3 20 -6 21 -23 12 -15 -7 -24
-7 -34 1 -12 10 -11 19 9 58 13 26 21 53 18 61 -3 8 0 11 7 7 13 -9 13 -9 1
74 -5 36 -10 85 -10 110 -3 94 -33 326 -44 339 -8 11 -8 13 1 8 13 -8 10 46
-7 183 -6 41 -11 94 -12 118 -1 23 -5 42 -10 42 -4 0 -8 5 -8 11 0 5 5 7 11 3
8 -5 10 0 6 17 -3 13 -11 86 -18 161 -7 76 -17 132 -21 125 -11 -17 -10 -3 1
26 7 18 6 30 -4 43 -8 11 -14 24 -15 29 0 6 5 3 10 -5 13 -20 13 3 0 90 -5 36
-11 101 -14 145 -10 149 -19 227 -25 217 -3 -5 -6 29 -6 77 0 47 -5 131 -12
186 -7 55 -12 141 -13 191 0 50 -3 94 -7 97 -3 4 -6 33 -5 65 2 31 -4 109 -13
172 -8 63 -17 162 -20 219 -3 58 -8 107 -12 110 -5 3 -9 51 -11 106 -2 55 -9
159 -18 230 -8 72 -16 153 -18 180 -2 28 -4 50 -5 50 -1 0 -4 44 -6 98 l-5 97
43 0 c61 0 101 48 72 87 -22 28 -19 32 28 35 36 3 42 6 45 28 1 14 9 52 17 85
7 33 21 98 30 145 9 47 25 123 35 170 10 47 26 123 35 170 9 47 23 114 30 150
8 36 16 81 19 100 4 19 8 46 11 60 3 14 12 68 20 120 9 51 18 96 21 99 3 3 19
10 37 16 22 7 32 16 32 30 0 16 -8 21 -39 25 -36 5 -42 10 -69 60 -57 106 -50
101 -118 95 -33 -2 -65 -8 -71 -11 -7 -4 -8 -2 -4 4 4 6 -7 38 -24 71 -16 33
-30 66 -30 73 0 10 -21 12 -88 10 l-88 -4 -21 64 c-24 72 -20 82 36 99 32 9
49 7 141 -23 58 -19 139 -45 180 -58 86 -27 116 -55 126 -120 7 -42 7 -43 -18
-37 -19 5 -28 2 -32 -9 -11 -29 -6 -34 30 -34 19 0 44 -5 55 -10 26 -14 40 17
16 35 -23 17 -21 27 10 57 36 33 80 42 135 28 23 -7 54 -14 68 -17 14 -2 48
-10 75 -18 28 -8 78 -19 112 -26 34 -6 69 -20 78 -29 18 -20 48 -109 37 -111
-4 -1 -14 -2 -22 -3 -8 0 -15 -10 -15 -21 0 -16 8 -21 35 -23 19 -2 40 -8 46
-13 14 -11 24 -1 24 24 0 10 -9 21 -20 24 -11 3 -20 8 -20 11 0 15 47 73 65
79 25 9 155 10 149 2 -4 -6 86 -21 208 -35 48 -6 62 -12 92 -43 19 -20 38 -48
41 -63 6 -25 5 -28 -19 -28 -19 0 -26 -5 -26 -20 0 -16 7 -20 36 -20 19 0 44
-5 55 -10 16 -9 19 -7 19 15 0 18 -5 25 -20 25 -30 0 -24 26 14 68 40 43 32
42 295 28 170 -10 189 -17 217 -83 18 -42 18 -43 -11 -43 -17 0 -25 -5 -25
-17 1 -24 25 -55 42 -52 28 5 68 -24 77 -58 17 -61 -35 -162 -86 -169 -47 -7
-100 78 -89 145 4 25 2 31 -4 21 -38 -60 29 -223 102 -246 49 -15 134 102 139
193 3 43 -8 83 -22 83 -5 0 -9 6 -9 14 0 8 -7 16 -15 20 -9 3 -15 18 -15 36 0
25 -4 30 -25 30 -14 0 -25 2 -25 5 0 18 34 66 59 84 27 20 43 21 220 21 182 0
193 -1 226 -22 51 -34 72 -88 34 -88 -16 0 -20 -5 -17 -22 2 -15 9 -22 18 -19
49 13 63 13 56 3 -5 -8 -1 -10 9 -5 10 3 21 0 26 -8 7 -10 9 -5 7 16 -2 22 -9
31 -25 33 -27 4 -27 3 -9 46 25 61 58 75 191 81 65 3 146 10 180 15 72 11 111
-2 145 -50 25 -35 25 -36 0 -43 -14 -4 -20 -14 -20 -33 0 -15 -8 -37 -17 -49
-10 -11 -6 -9 8 5 14 14 31 24 37 22 7 -2 12 1 12 7 0 6 5 11 11 11 5 0 8 -4
5 -9 -3 -4 13 -13 35 -20 24 -7 37 -16 33 -23 -4 -6 -3 -9 2 -6 5 3 15 0 22
-8 7 -8 8 -14 2 -14 -5 0 -10 -20 -10 -45 0 -37 3 -43 17 -38 10 4 14 2 10 -4
-3 -5 0 -10 7 -10 7 0 13 5 13 11 1 6 3 28 6 48 6 43 -24 93 -50 83 -11 -3
-13 -1 -9 10 4 12 -1 14 -24 10 -16 -3 -32 0 -36 6 -5 8 1 10 20 7 17 -4 26
-1 26 8 0 26 -13 44 -31 44 -29 0 -23 26 16 69 37 41 32 39 180 57 28 3 78 12
112 19 101 20 148 14 188 -25 40 -39 43 -50 15 -50 -15 0 -20 -7 -20 -26 0
-21 4 -25 17 -20 9 4 36 10 60 13 44 6 47 10 37 36 -3 9 -13 13 -26 9 -19 -5
-20 -2 -14 24 4 16 15 40 25 54 18 25 93 56 154 64 18 3 55 10 82 16 28 7 60
14 72 16 12 2 34 9 48 14 66 25 158 0 185 -50 10 -19 8 -22 -10 -27 -18 -5
-21 -11 -16 -34 3 -17 0 -32 -9 -39 -8 -7 -15 -18 -15 -24 0 -6 11 2 25 18 14
16 25 25 25 21 0 -5 7 0 16 11 8 10 13 14 10 8 -3 -7 1 -15 10 -18 8 -3 12 -2
9 4 -3 6 2 10 12 11 16 0 16 1 -2 10 -17 8 -17 9 5 4 14 -2 30 -5 35 -5 6 0
-1 -8 -15 -16 -23 -14 -14 -13 28 3 15 6 15 5 3 -11 -12 -15 -12 -19 1 -33 17
-16 43 -9 32 9 -4 7 -2 8 4 4 6 -4 9 -13 5 -21 -3 -9 1 -15 11 -15 9 0 16 -7
16 -17 0 -9 3 -14 6 -10 12 12 -19 63 -53 87 -19 14 -38 35 -44 48 -6 16 -16
22 -31 20 -45 -6 -25 78 28 117 15 11 30 20 33 20 3 0 24 5 46 12 22 6 85 24
140 39 55 15 107 31 116 35 26 13 91 -8 123 -41 31 -30 31 -31 9 -36 -22 -6
-31 -33 -17 -47 4 -3 19 0 35 8 15 8 39 15 53 15 22 0 24 3 17 23 -6 16 -15
21 -31 19 -22 -4 -22 -1 -16 40 10 66 42 90 186 138 69 24 128 47 131 52 3 5
8 9 10 8 2 -1 24 3 48 10 37 10 51 9 88 -5 53 -21 71 -48 44 -67 -14 -10 -16
-19 -10 -35 5 -13 14 -23 20 -23 7 0 9 3 6 7 -8 8 23 32 43 33 25 1 41 16 34
33 -4 12 -13 15 -30 11 -21 -6 -24 -3 -24 25 0 44 39 121 58 113 11 -4 13 -1
7 8 -5 8 -4 11 2 7 10 -6 102 31 262 105 77 35 124 32 166 -12 27 -28 27 -28
6 -40 -17 -9 -19 -15 -11 -30 10 -19 12 -19 50 5 22 14 47 25 55 25 13 0 14 4
5 20 -9 16 -15 18 -30 10 -28 -15 -30 -13 -30 30 0 73 24 102 127 151 51 24
93 46 93 50 0 4 23 14 52 24 29 9 61 23 72 31 28 19 60 18 106 -6 42 -21 50
-37 25 -46 -12 -5 -13 -10 -1 -31 11 -22 11 -30 -2 -55 -23 -48 -1 -108 62
-164 76 -69 135 -84 172 -43 28 31 27 180 -1 227 -23 39 -86 76 -103 61 -7 -5
-10 -6 -7 -3 8 12 -27 37 -52 38 -21 1 -27 7 -30 31 -8 60 22 95 136 159 58
33 134 76 167 96 56 34 66 37 108 30 26 -4 55 -14 64 -23 15 -16 15 -18 -1
-30 -16 -11 -16 -15 -4 -32 14 -18 15 -18 47 8 32 27 33 27 53 10 14 -12 18
-13 12 -3 -5 8 -9 24 -10 35 0 15 -7 20 -30 20 -26 1 -30 4 -33 33 -4 41 32
106 67 122 14 6 85 50 156 98 137 91 160 98 228 71 31 -13 32 -16 12 -39 -14
-15 -14 -19 3 -40 19 -24 48 -20 38 5 -3 9 3 12 20 10 21 -2 22 0 12 13 -10
13 -10 14 0 8 6 -4 12 -2 12 3 0 6 5 11 11 11 5 0 7 -5 3 -12 -4 -7 -3 -8 4
-4 9 5 9 13 2 26 -14 26 -30 34 -43 21 -20 -20 -27 -12 -27 34 0 64 24 106 77
133 25 12 47 21 49 19 5 -4 84 -269 84 -280 0 -4 -4 -5 -10 -2 -14 9 -13 -8 2
-23 8 -8 8 -12 1 -12 -6 0 -18 11 -27 25 -9 14 -21 23 -26 20 -4 -3 -10 1 -13
7 -2 7 -8 10 -12 6 -4 -4 -2 -15 5 -23 11 -13 15 -13 22 -3 7 9 8 6 5 -10 -3
-12 -2 -20 3 -17 4 3 21 -2 36 -10 16 -8 25 -15 20 -15 -5 0 -3 -7 4 -15 6 -8
9 -23 5 -36 -4 -13 -3 -19 2 -16 14 9 28 -24 63 -153 17 -63 38 -133 46 -155
7 -22 16 -59 20 -82 l7 -43 50 0 c40 0 48 -3 39 -12 -17 -17 -15 -64 4 -82 10
-10 33 -16 65 -16 l49 0 2 -2636 c3 -2499 2 -2638 -14 -2657 -12 -13 -18 -38
-19 -76 -3 -128 -9 -258 -23 -451 -8 -113 -15 -232 -15 -265 -1 -33 -5 -125
-11 -205 -5 -80 -12 -196 -16 -259 l-7 -114 99 9 c54 4 146 7 203 5 l104 -2
-7 93 c-3 51 -11 224 -16 383 -5 160 -12 306 -15 325 -3 19 -10 148 -14 285
-7 182 -13 257 -24 277 -8 15 -18 24 -23 20 -4 -4 -3 0 4 9 9 13 12 589 12
2635 l0 2619 37 3 c21 2 43 8 50 14 16 13 17 70 1 86 -9 9 1 12 45 12 l56 0
21 73 c12 39 26 88 31 107 5 19 16 58 24 85 8 28 28 97 45 155 17 58 37 128
45 155 8 28 29 102 46 165 70 257 68 252 98 245 14 -3 48 -31 74 -61 27 -30
54 -51 59 -48 6 4 8 3 5 -3 -3 -5 30 -43 73 -83 l80 -73 0 -56 c0 -72 -11 -92
-38 -68 -18 16 -20 16 -36 -2 -17 -18 -17 -19 3 -26 11 -3 32 -20 46 -37 21
-25 28 -28 40 -18 14 11 14 15 -1 31 -15 16 -14 19 8 32 22 15 51 20 94 18 17
-1 148 -99 174 -130 21 -25 92 -71 102 -65 7 4 8 3 4 -4 -4 -6 4 -18 18 -27
31 -20 47 -85 33 -132 -9 -28 -13 -31 -29 -22 -14 7 -23 7 -34 -2 -17 -14 -18
-29 -1 -29 7 0 28 -13 47 -29 31 -26 36 -27 47 -12 9 13 8 20 -4 34 -15 16
-15 18 3 31 25 19 70 27 102 19 28 -6 114 -61 120 -75 2 -4 10 -8 17 -8 7 0
15 -3 17 -8 4 -10 108 -85 108 -78 0 6 37 -24 72 -56 12 -12 18 -32 18 -62 0
-49 -10 -62 -38 -47 -14 7 -21 5 -29 -7 -9 -15 -4 -21 29 -37 22 -11 43 -25
45 -32 3 -7 9 -13 13 -13 15 0 17 35 3 51 -12 15 -11 19 13 38 44 34 99 28
173 -19 34 -22 68 -40 76 -40 8 0 15 -4 15 -9 0 -5 40 -33 90 -61 79 -45 91
-56 101 -89 6 -20 9 -48 7 -61 -2 -20 -8 -24 -30 -22 -19 2 -28 -3 -33 -17 -3
-12 -19 -21 -40 -25 -48 -9 -84 -46 -101 -102 -20 -68 -16 -173 7 -158 5 3 6
-3 2 -12 -4 -11 1 -22 12 -30 23 -17 79 -19 69 -2 -4 7 -3 8 4 4 16 -10 49 10
100 58 48 47 65 95 52 152 -5 21 -4 47 1 62 10 25 0 41 -25 42 -14 0 16 30 45
46 16 8 41 14 57 14 16 0 106 -37 200 -82 180 -88 199 -103 204 -169 3 -30 0
-34 -20 -34 -21 0 -41 -19 -42 -37 0 -5 9 -8 20 -8 27 0 77 -26 83 -42 2 -7 8
0 12 15 6 21 3 31 -9 40 -16 12 -15 14 6 34 55 51 68 48 396 -86 49 -20 92
-73 92 -113 0 -23 -4 -28 -25 -28 -14 0 -25 -4 -25 -10 0 -5 -9 -19 -19 -29
-19 -19 -19 -20 -1 -18 10 1 16 5 14 9 -3 4 1 8 9 8 8 0 27 -16 41 -35 15 -19
32 -35 38 -35 6 0 16 -7 23 -16 11 -15 12 -15 12 0 0 9 -4 16 -8 16 -8 0 -4
54 6 70 3 4 -4 11 -15 15 -25 8 -25 17 -2 37 32 30 92 49 114 37 11 -6 26 -8
34 -5 8 3 13 2 10 -2 -3 -5 30 -19 72 -32 42 -13 113 -35 157 -49 44 -14 84
-24 88 -23 5 1 6 -2 2 -8 -3 -5 1 -20 9 -32 24 -34 21 -76 -6 -80 -29 -4 -38
-38 -10 -38 11 0 35 -7 55 -15 31 -13 36 -13 41 1 10 25 7 32 -15 39 -21 7
-21 7 3 32 45 49 77 55 165 32 43 -11 94 -24 113 -28 19 -5 55 -14 80 -21 25
-6 58 -14 73 -16 48 -6 61 -13 90 -51 33 -44 38 -98 8 -90 -12 3 -22 -1 -25
-10 -11 -27 -6 -33 22 -33 16 0 37 -7 48 -16 10 -8 13 -12 5 -8 -8 4 -12 2
-10 -5 3 -7 8 -12 13 -11 5 1 13 -5 18 -14 5 -9 13 -14 19 -11 5 4 9 0 9 -8 0
-22 -12 -28 -24 -12 -9 12 -11 5 -12 -32 -2 -72 -8 -98 -22 -96 -7 2 -11 -3
-9 -10 1 -6 -4 -11 -11 -9 -8 1 -11 -2 -8 -7 4 -5 1 -11 -6 -14 -7 -2 -2 -2
11 0 22 4 23 2 11 -12 -7 -9 -20 -13 -29 -10 -12 4 -12 2 2 -9 10 -8 14 -17 8
-20 -5 -3 -16 0 -24 9 -11 11 -16 11 -20 2 -6 -17 3 -37 16 -37 19 1 65 39 47
40 -13 0 -13 2 0 9 8 6 18 7 23 4 5 -3 4 4 -3 16 -12 23 0 51 23 51 7 0 7 -4
-1 -12 -15 -15 -16 -28 -2 -28 6 0 10 7 10 16 0 9 5 12 12 8 6 -4 8 -3 4 4 -3
5 -3 12 1 15 5 2 2 2 -6 0 -8 -2 -11 2 -8 11 3 7 0 19 -6 25 -18 18 4 13 27
-6 12 -10 18 -14 14 -9 -4 5 -2 16 5 24 10 13 9 15 -10 10 -14 -4 -24 -1 -27
9 -10 24 -7 39 4 23 8 -12 10 -10 10 10 0 19 3 21 9 11 5 -8 7 -21 4 -30 -5
-12 -3 -13 7 -4 17 15 -7 81 -33 89 -14 4 -16 9 -8 17 19 19 13 57 -9 57 -28
0 -25 14 9 52 28 32 32 33 103 32 102 -1 177 -8 172 -16 -3 -4 4 -6 13 -6 35
3 168 -33 191 -50 13 -10 29 -36 37 -57 l13 -40 -28 -3 c-17 -2 -30 -10 -33
-22 -4 -16 0 -18 28 -13 18 3 42 0 55 -7 18 -10 24 -9 31 1 13 21 11 27 -11
34 -28 9 -25 22 14 61 32 32 39 34 98 34 34 0 104 -7 153 -15 50 -8 116 -15
147 -15 56 0 59 -1 82 -37 36 -57 42 -83 17 -83 -17 0 -40 -35 -29 -44 1 -2
29 -6 61 -9 55 -5 57 -5 57 19 0 17 -5 24 -20 24 -26 0 -25 20 1 54 35 44 52
48 213 46 83 -1 167 -2 186 -2 46 0 94 -22 119 -55 32 -40 26 -70 -11 -64 -5
0 -8 -6 -8 -14 0 -8 -1 -18 -2 -21 -2 -3 25 -6 60 -7 57 -2 63 0 60 18 -2 11
-9 21 -15 21 -7 1 -18 2 -24 3 -15 2 -1 41 25 70 40 44 73 51 253 50 188 -2
207 -7 247 -66 27 -39 26 -53 -5 -53 -14 0 -19 -7 -19 -29 0 -16 -6 -31 -14
-34 -8 -3 -22 -20 -32 -38 -36 -71 8 -219 78 -258 56 -32 129 32 150 130 15
71 4 125 -33 161 -16 16 -29 38 -29 49 0 14 -7 19 -25 19 -29 0 -30 8 -11 55
19 45 59 64 153 70 43 3 128 10 190 16 108 11 113 10 148 -11 19 -12 42 -35
50 -51 15 -28 15 -29 -11 -29 -20 0 -25 -4 -20 -16 3 -9 6 -19 6 -23 0 -6 29
-6 103 -2 5 1 7 11 5 24 -2 14 -11 23 -25 25 -28 4 -28 9 -5 44 41 63 66 71
252 83 19 1 62 8 94 14 92 17 91 17 105 -41 21 -84 24 -137 9 -156 -11 -15
-11 -16 3 -4 15 11 17 8 22 -20 18 -104 19 -128 6 -128 -9 0 -10 -3 -4 -8 6
-4 18 -25 27 -47 15 -37 24 -77 63 -285 30 -156 44 -227 56 -287 l12 -63 48 0
c27 0 49 -4 49 -10 0 -5 -4 -10 -9 -10 -5 0 -11 -14 -13 -32 -7 -42 30 -78 80
-78 l35 0 -8 -117 c-5 -65 -9 -139 -9 -165 -1 -27 -4 -48 -8 -48 -4 0 -7 -26
-7 -57 1 -32 -4 -94 -10 -138 -6 -44 -12 -115 -13 -157 -2 -43 -6 -78 -9 -78
-3 0 -5 -40 -5 -89 1 -49 -2 -85 -5 -79 -4 5 -9 -28 -13 -74 -4 -45 -10 -94
-13 -107 -4 -18 -3 -22 7 -16 9 6 10 3 1 -12 -5 -11 -11 -65 -13 -120 -2 -56
-6 -99 -10 -96 -5 2 -9 -20 -9 -49 -1 -29 -3 -64 -4 -78 -2 -14 -6 -69 -10
-122 l-7 -96 -111 -110 c-116 -114 -193 -182 -207 -182 -20 0 -72 28 -59 32 7
2 -8 13 -34 23 -27 10 -67 31 -89 47 -22 16 -42 28 -44 25 -5 -4 52 -45 101
-71 26 -14 27 -16 5 -10 -80 22 -170 113 -170 172 0 28 25 45 55 38 14 -4 25
-2 25 4 0 5 -10 10 -22 10 -13 0 -67 16 -121 35 -54 19 -95 30 -92 25 4 -6 -1
-10 -9 -10 -9 0 -16 -4 -16 -10 0 -23 -64 -79 -107 -94 -60 -20 -99 -20 -179
1 -59 16 -66 16 -92 1 -42 -25 -126 -47 -208 -54 l-74 -7 0 -49 c0 -27 -6 -70
-14 -96 -28 -96 -46 -183 -41 -192 14 -23 -252 4 -333 34 -84 30 -182 89 -222
132 -46 50 -55 52 -155 25 -245 -65 -326 -114 -493 -295 l-53 -57 -97 -6 -97
-5 0 199 c0 192 -7 266 -40 413 -9 36 -17 81 -20 100 -2 19 -11 53 -21 75 -9
22 -15 41 -14 43 5 7 -25 102 -32 102 -4 0 -8 7 -8 15 0 26 -62 155 -72 149
-5 -3 -8 0 -6 7 5 23 -43 95 -122 182 -54 61 -199 169 -217 163 -6 -3 -10 0
-8 7 3 7 -23 28 -58 47 -34 19 -83 55 -109 79 l-48 44 0 -35 c0 -19 -9 -62
-21 -96 -24 -73 -86 -143 -152 -172 -49 -23 -158 -27 -197 -7 -41 21 -70 74
-70 128 0 52 -10 60 -45 35 -11 -7 -54 -28 -95 -46 -114 -49 -228 -119 -266
-164 -41 -48 -130 -217 -160 -306 l-22 -65 -58 -1 c-33 0 -97 5 -144 12 -47 7
-116 14 -154 17 -63 4 -71 3 -92 -19 -13 -13 -24 -33 -24 -46 1 -22 1 -22 16
4 21 40 41 47 109 38 33 -5 128 -16 210 -25 83 -9 196 -23 253 -31 56 -7 125
-14 152 -14 27 0 51 -4 54 -9 3 -4 23 -11 45 -15 22 -3 52 -16 66 -29 28 -24
34 -53 56 -244 10 -90 14 -103 33 -110 31 -10 49 -14 68 -16 9 -1 15 -4 12 -8
-2 -4 13 -19 33 -35 29 -22 49 -29 93 -30 61 -2 76 -5 135 -27 36 -13 153 -50
165 -52 3 0 38 -11 78 -24 40 -13 75 -21 79 -18 16 16 25 401 14 592 -19 332
-19 337 20 413 41 81 72 100 130 83 107 -32 220 -289 249 -566 5 -49 14 -115
20 -145 6 -30 12 -134 13 -230 1 -155 -1 -178 -18 -203 -16 -25 -23 -28 -64
-26 -25 2 -74 11 -108 20 -35 9 -63 13 -63 8 0 -5 9 -9 19 -9 11 0 23 -5 26
-10 4 -6 10 -8 13 -6 9 6 96 -24 142 -48 54 -29 129 -106 151 -156 18 -40 19
-51 9 -97 -34 -154 -197 -171 -512 -54 -50 18 -169 77 -334 165 -68 36 -123
83 -135 114 -6 16 -6 45 1 84 11 57 6 132 -9 157 -5 7 -21 11 -36 9 l-27 -3
21 -27 c15 -19 23 -45 26 -91 4 -57 2 -66 -22 -91 -23 -25 -31 -28 -75 -24
-33 4 -57 13 -74 29 l-26 24 7 -65 c3 -36 10 -93 16 -128 5 -34 12 -91 14
-125 3 -34 8 -80 11 -103 8 -57 -3 -62 -116 -53 -52 5 -120 11 -150 13 -101 9
-174 17 -280 31 -58 8 -159 21 -225 30 -111 14 -122 18 -147 45 -16 17 -28 25
-28 18 0 -6 10 -22 21 -34 l22 -23 -32 -40 c-53 -67 -135 -127 -288 -211 -24
-13 -44 -22 -45 -19 -2 2 -10 17 -18 34 -22 43 -90 85 -150 92 -42 5 -50 3
-50 -11 0 -12 10 -16 40 -16 114 0 199 -105 155 -192 -9 -18 -19 -58 -22 -88
-6 -59 -25 -100 -47 -100 -20 0 -26 23 -26 91 0 53 -2 59 -20 59 -33 0 -84
-58 -126 -145 -28 -58 -45 -81 -60 -83 -24 -3 -37 27 -28 68 4 22 3 23 -5 5
-6 -11 -17 -37 -25 -58 -13 -31 -20 -38 -38 -35 -21 3 -23 8 -21 56 1 28 7 62
13 75 11 21 11 22 -5 2 -9 -11 -18 -31 -22 -45 -3 -14 -12 -35 -20 -48 -11
-19 -17 -21 -35 -11 -18 10 -20 17 -15 61 l6 50 -60 -76 c-34 -42 -65 -74 -70
-70 -12 7 -11 41 1 64 8 16 8 18 -5 14 -8 -4 -15 -10 -15 -14 0 -5 -16 -18
-36 -30 -64 -40 -71 8 -12 76 49 56 26 49 -37 -11 -59 -56 -81 -66 -91 -42 -8
21 11 61 48 103 26 30 28 35 11 25 -13 -6 -23 -16 -23 -20 0 -16 -83 -72 -93
-62 -15 15 4 60 44 100 21 22 32 37 24 34 -20 -7 -29 20 -16 45 23 44 189 125
252 123 15 -1 29 5 32 13 3 8 24 24 46 37 23 12 41 26 41 31 0 8 -6 9 -95 28
-27 6 -54 15 -60 19 -10 7 -126 23 -264 36 -37 4 -67 2 -70 -3 -3 -5 -78 -15
-166 -21 -217 -16 -260 -20 -330 -31 -33 -5 -82 -12 -108 -15 -40 -5 -160 -29
-254 -52 -13 -3 -23 -10 -23 -15 0 -5 -4 -6 -10 -3 -5 3 -10 1 -10 -4 0 -6 -3
-10 -7 -9 -12 4 -83 -40 -83 -52 0 -5 -6 -10 -12 -10 -13 0 -128 -110 -116
-110 4 0 -4 -12 -18 -27 -33 -35 -116 -202 -107 -216 3 -5 2 -7 -4 -4 -6 4
-18 -17 -28 -46 l-18 -53 -59 9 c-50 8 -61 7 -77 -7 -22 -20 -68 -103 -61
-110 3 -2 44 -6 92 -8 65 -2 84 -6 77 -15 -6 -6 -12 -24 -14 -40 -2 -15 -4
-28 -5 -28 -3 0 -10 -40 -13 -67 -1 -16 -5 -28 -9 -28 -3 0 -10 -26 -16 -57
-7 -42 -7 -60 2 -65 6 -4 49 -19 96 -34 128 -40 140 -48 140 -91 0 -19 -6 -79
-14 -132 -8 -53 -19 -139 -25 -191 -7 -52 -16 -126 -21 -165 -19 -145 -39
-322 -45 -392 -7 -83 -5 -84 62 -54 70 32 72 40 83 302 5 129 14 290 20 359 7
69 14 152 16 185 3 33 5 65 6 71 1 7 19 4 52 -8 105 -40 144 -50 241 -62 64
-8 131 -10 185 -5 162 14 245 10 363 -17 129 -29 261 -42 271 -26 3 6 10 42
15 80 11 89 54 222 71 222 4 0 1 -39 -6 -87 -7 -49 -16 -117 -19 -153 -4 -36
-12 -110 -20 -165 -7 -55 -16 -134 -20 -175 -6 -68 -34 -263 -38 -266 -3 -2
-132 13 -240 27 -53 7 -99 10 -102 8 -5 -6 -35 -113 -42 -152 -5 -23 -2 -27
18 -27 21 0 220 -23 316 -36 l33 -5 -6 -62 c-3 -34 -12 -104 -20 -156 -7 -52
-11 -98 -8 -103 3 -4 15 -8 27 -8 l21 0 -22 -16 c-33 -23 -27 -38 29 -69 97
-53 222 -45 421 26 157 56 166 62 170 106 3 33 7 39 35 47 30 9 32 14 43 75
18 107 5 99 128 84 59 -7 146 -18 195 -25 l87 -11 0 -60 c0 -33 6 -76 12 -95
12 -32 11 -36 -10 -50 -23 -15 -69 -33 -172 -68 -62 -21 -153 -67 -157 -79 -7
-23 62 -59 132 -70 87 -13 157 -5 283 36 156 51 222 84 222 111 0 47 12 68 36
68 28 0 40 23 50 100 4 29 13 54 21 57 13 5 128 -6 323 -32 58 -8 147 -20 198
-26 l94 -12 -7 -86 c-4 -47 -13 -123 -20 -169 -9 -61 -9 -85 -1 -87 14 -4 154
-23 227 -30 64 -6 69 -1 69 66 0 22 7 87 16 145 17 105 17 105 43 100 14 -3
73 -10 131 -16 58 -6 114 -13 125 -16 11 -3 63 -9 115 -13 86 -8 401 -43 509
-57 l43 -6 -6 -56 c-3 -31 -12 -106 -20 -167 -53 -408 -74 -613 -81 -776 l-6
-145 111 -52 c61 -29 123 -55 138 -58 15 -4 32 -10 37 -14 6 -4 21 -10 35 -13
14 -3 106 -26 205 -51 99 -25 223 -51 275 -56 52 -6 109 -12 125 -15 17 -2
100 -7 185 -10 85 -4 196 -10 245 -16 218 -22 867 -4 1055 30 114 20 243 33
249 24 17 -24 92 -74 102 -67 7 4 9 3 6 -3 -4 -6 24 -38 62 -72 l68 -63 84 -4
c46 -3 86 -7 90 -10 9 -5 19 22 19 52 0 22 -4 24 -52 25 -29 1 -55 1 -58 1 -7
0 -3 118 19 553 10 204 19 413 20 465 1 52 6 151 9 220 5 85 4 136 -4 158 -6
19 -10 46 -8 60 2 15 8 88 14 162 6 74 13 149 16 165 7 51 7 112 0 124 -4 6
-3 11 2 11 5 0 13 42 17 92 4 51 9 111 11 133 1 22 6 72 9 110 3 39 10 113 15
165 12 118 40 419 44 483 2 30 0 47 -8 47 -8 0 -8 3 0 8 6 4 16 57 23 117 21
196 23 225 11 225 -16 0 31 40 140 120 124 92 360 324 360 355 0 21 -5 23 -78
28 -57 3 -93 12 -130 31 -56 29 -72 49 -72 95 0 25 11 39 71 86 76 61 95 94
82 137 l-8 28 -40 -38 c-49 -47 -114 -72 -185 -72 -70 0 -58 11 17 14 75 4
102 15 157 69 25 24 48 41 51 39 3 -3 5 7 5 21 0 23 -4 27 -27 27 -14 0 -49 6
-77 14 -28 8 -78 21 -111 30 -33 8 -96 24 -140 35 -116 30 -284 69 -325 76
-19 3 -64 14 -100 24 l-66 17 -54 -46 c-31 -28 -50 -52 -46 -59 4 -7 0 -11
-12 -11 -18 0 -189 -150 -267 -235 -22 -24 -96 -94 -165 -157 -143 -129 -244
-223 -313 -289 l-47 -46 14 -35 c17 -40 15 -44 -45 -87 -44 -31 -47 -36 -53
-89 -6 -54 -38 -153 -59 -179 -15 -20 -45 -15 -58 8 -8 15 -8 33 0 64 6 24 11
46 11 49 0 11 -101 6 -122 -5 -11 -6 -48 -39 -81 -73 -44 -44 -75 -66 -105
-75 -24 -7 -46 -11 -48 -9 -2 2 -6 56 -9 119 -4 62 -13 147 -21 187 -9 40 -13
79 -10 87 6 17 144 95 169 95 9 0 17 4 17 8 0 11 83 47 143 63 52 13 163 7
197 -11 11 -6 28 -29 38 -51 l19 -41 129 124 c71 69 221 209 334 312 113 104
228 211 255 240 28 28 74 73 103 99 56 52 60 57 37 57 -8 0 -15 5 -15 11 0 6
10 10 23 9 35 -3 47 -1 47 10 0 6 -7 10 -16 10 -8 0 -12 5 -9 10 3 6 19 10 35
10 16 0 32 4 35 10 3 5 -1 10 -9 10 -9 0 -16 5 -16 11 0 7 10 9 25 5 18 -5 25
-2 25 8 0 8 -6 17 -12 19 -7 3 -2 6 11 6 27 1 134 88 125 102 -3 5 1 9 8 9 10
0 9 3 -1 9 -12 8 7 30 83 103 114 108 127 117 121 88 -4 -18 -2 -19 15 -7 11
7 42 34 70 60 56 52 60 54 60 32 0 -8 -4 -15 -8 -15 -5 0 -38 -29 -74 -64 -58
-57 -66 -68 -70 -111 -3 -26 -11 -51 -18 -55 -9 -6 -9 -9 0 -15 6 -4 9 -14 6
-22 -3 -8 -2 -12 3 -9 5 3 20 -3 32 -15 l24 -20 -25 11 c-24 11 -24 11 -5 -5
16 -14 35 -16 100 -11 50 3 73 2 60 -4 -19 -8 -19 -9 3 -9 12 -1 22 3 22 9 0
5 15 7 33 5 l32 -5 -34 11 c-29 9 -33 13 -29 39 3 16 0 32 -6 34 -6 3 -5 5 2
5 7 1 11 4 9 9 -2 4 1 57 8 117 10 88 10 113 0 124 -11 11 -14 -1 -20 -62 -4
-41 -4 -81 0 -88 5 -7 4 -10 -1 -6 -5 3 -10 -31 -12 -76 -2 -45 -4 -82 -5 -84
-2 -1 -13 0 -26 4 -19 5 -22 11 -17 37 3 17 8 81 11 141 6 102 8 112 32 133
18 17 28 20 38 12 10 -8 14 -3 17 25 2 20 0 39 -4 41 -5 3 -6 9 -3 14 3 5 7
30 10 57 5 45 20 176 31 271 3 25 0 42 -6 42 -5 0 -10 5 -10 11 0 5 4 8 8 5 9
-5 32 187 38 321 2 45 10 135 18 200 11 90 12 119 3 125 -9 6 -9 8 1 8 8 0 12
12 11 33 -2 28 13 167 27 255 4 24 1 32 -10 32 -21 0 -24 -17 -36 -199 -6 -91
-13 -167 -15 -170 -2 -4 -6 -51 -9 -106 -4 -55 -13 -156 -21 -225 -7 -69 -16
-168 -19 -220 -3 -52 -10 -133 -15 -180 -12 -102 -20 -199 -20 -257 -1 -35 -4
-43 -20 -43 -16 0 -20 9 -23 56 -1 31 -1 57 3 59 3 2 6 34 7 72 1 37 5 81 8
97 4 19 2 31 -7 37 -11 7 -11 9 -1 9 9 0 11 7 7 21 -5 15 -4 19 5 14 8 -5 11
9 9 52 -1 33 1 65 5 71 4 7 7 42 7 79 1 99 5 156 13 174 4 9 8 71 9 138 1 66
5 121 8 121 9 0 32 250 27 293 -2 20 0 37 4 37 4 0 8 16 8 36 0 25 -3 33 -12
28 -7 -4 -5 2 5 13 13 15 18 45 23 124 3 57 6 105 8 106 1 1 15 -2 32 -6 16
-5 24 -10 18 -10 -6 -1 -10 -18 -10 -38 0 -21 -3 -68 -8 -105 -6 -56 -5 -68 7
-68 10 0 14 14 16 48 1 26 5 74 9 107 l7 60 40 3 c54 5 78 27 73 69 l-4 33 53
0 c42 0 55 4 59 18 8 21 37 98 99 257 26 66 49 132 50 147 2 15 12 46 23 70
10 24 68 166 127 316 l108 272 39 0 c36 0 38 2 38 30 0 26 -4 30 -27 31 -16 1
-31 1 -35 0 -5 0 -8 8 -8 19 0 26 -28 109 -47 139 -12 19 -17 21 -24 10 -6
-10 -9 -11 -9 -1 0 7 -14 12 -37 12 -21 0 -43 4 -50 8 -7 4 -23 44 -38 89
l-25 81 -56 1 c-87 1 -91 3 -108 81 -9 38 -16 84 -16 102 0 57 -11 78 -47 93
-38 16 -77 20 -69 7 2 -4 -4 -8 -15 -8 -18 0 -18 2 -5 12 9 6 14 13 12 15 -2
2 -6 61 -9 132 -4 97 -2 127 8 127 20 0 45 35 45 63 0 55 -61 84 -108 51 -27
-18 -32 -91 -7 -100 19 -8 20 -64 0 -152 -8 -37 -15 -78 -17 -91 -2 -20 -12
-27 -47 -35 -43 -11 -44 -13 -73 -86 -16 -41 -31 -82 -33 -90 -16 -70 -19 -71
-105 -68 l-81 3 -30 -55 c-57 -103 -51 -98 -116 -93 -64 5 -60 9 -118 -102
-18 -34 -27 -41 -61 -45 -30 -4 -40 -10 -42 -27 -3 -17 3 -23 30 -28 37 -8 48
-20 48 -52 0 -17 -6 -23 -22 -24 -29 -1 -68 -6 -138 -19 -30 -5 -102 -12 -160
-15 -58 -3 -132 -10 -165 -15 -33 -5 -103 -12 -155 -15 -52 -2 -176 -9 -275
-15 -99 -6 -284 -12 -412 -14 -127 -2 -235 -6 -241 -10 -5 -3 -12 -3 -16 1 -3
3 -48 8 -100 9 -137 5 -523 24 -581 29 -27 3 -93 10 -145 16 -52 5 -117 12
-145 14 -57 5 -180 24 -209 32 -11 3 -16 1 -12 -5 4 -7 -3 -7 -21 -2 -16 5
-70 16 -120 25 -259 43 -447 78 -513 95 -19 5 -53 12 -75 15 -22 3 -54 11 -72
16 -17 6 -44 12 -60 15 -15 3 -48 11 -73 18 -25 8 -74 21 -110 31 -164 42
-292 80 -470 138 -52 17 -99 32 -105 33 -5 2 -41 15 -80 29 -38 14 -90 33
-115 42 -25 8 -70 25 -100 38 -30 13 -109 45 -175 71 -66 26 -127 53 -136 60
-8 8 -18 14 -21 14 -16 0 -488 231 -568 278 -84 49 -133 72 -142 65 -6 -3 -8
-2 -5 4 3 5 -21 25 -53 43 -33 19 -60 38 -60 43 0 5 -7 7 -15 3 -8 -3 -15 -2
-15 3 0 9 -164 110 -231 144 -22 10 -39 22 -39 26 0 4 -11 13 -25 19 -31 14
-309 212 -313 224 -2 4 -8 6 -13 2 -5 -3 -9 -1 -9 4 0 5 -21 24 -47 43 -26 18
-54 40 -63 49 -9 8 -40 34 -70 57 -30 23 -67 52 -82 65 -14 13 -35 30 -45 38
-110 92 -205 180 -350 324 -159 157 -172 173 -167 200 7 43 11 46 55 46 38 0
40 2 37 28 -3 23 -8 27 -39 30 -32 3 -37 7 -52 50 -10 26 -26 62 -37 80 -19
30 -23 32 -78 32 l-59 0 -32 75 c-17 41 -31 79 -31 85 0 6 -32 10 -78 10 l-79
0 -27 108 c-16 59 -30 113 -32 120 -4 15 -46 32 -79 32 -31 0 -33 4 -47 94 -6
41 -14 73 -17 72 -3 -2 -6 18 -6 44 0 38 5 54 23 70 58 54 -12 149 -81 109z
m40 -34 c0 -8 -4 -15 -9 -15 -10 0 -11 14 -1 23 9 10 10 9 10 -8z m296 -1092
c4 -3 -3 -13 -15 -23 -23 -19 -22 -19 95 -20 131 0 127 2 103 -72 -7 -24 -21
-72 -31 -108 -21 -77 -42 -150 -59 -205 -12 -38 -15 -40 -62 -46 -27 -3 -102
-4 -166 -1 l-118 5 0 213 0 214 48 0 c37 0 52 6 71 26 20 21 32 25 75 23 28
-1 54 -4 59 -6z m-368 -23 c-18 -20 -17 -20 13 -20 l32 0 0 -214 0 -215 -151
-3 c-83 -2 -159 0 -169 4 -10 4 -21 21 -25 40 -4 18 -13 51 -20 73 -18 53 -85
295 -85 306 0 5 71 9 158 9 146 0 160 2 177 20 12 13 31 20 53 20 34 0 35 0
17 -20z m-615 -311 c0 -35 -2 -40 -17 -34 -10 4 -28 10 -40 12 -13 3 -23 8
-23 12 0 7 62 51 72 51 5 0 8 -18 8 -41z m1640 -20 c0 -5 5 -7 12 -3 7 4 8 3
4 -4 -3 -6 3 -16 14 -22 25 -14 26 -40 1 -40 -11 0 -26 -3 -35 -6 -13 -5 -16
2 -16 40 0 25 5 46 10 46 6 0 10 -5 10 -11z m-980 -399 l0 -200 -100 0 c-98 0
-101 1 -110 25 -17 46 -61 210 -70 260 -4 28 -13 63 -19 78 -6 16 -11 30 -11
33 0 2 70 4 155 4 l155 0 0 -200z m374 178 c-16 -50 -67 -226 -80 -278 -30
-112 -21 -105 -129 -102 l-95 3 0 200 0 199 156 0 155 0 -7 -22z m1087 -175
c46 -33 49 -43 10 -43 -16 0 -36 -3 -45 -6 -13 -5 -16 2 -16 35 0 23 3 41 6
41 3 0 23 -12 45 -27z m-3121 -199 c0 -25 -3 -44 -7 -42 -5 3 -23 11 -40 18
-18 8 -33 17 -33 21 0 7 59 47 73 48 4 1 7 -20 7 -45z m3620 -146 c0 -5 -8
-11 -17 -14 -10 -3 -25 -9 -35 -14 -14 -8 -17 -2 -20 35 l-3 43 37 -21 c21
-11 38 -24 38 -29z m-3497 2 c44 -35 61 -135 31 -178 -33 -47 -133 -11 -168
61 -20 44 -20 50 1 90 9 18 17 34 16 37 -1 3 20 6 46 8 36 2 54 -3 74 -18z
m1652 -2695 l0 -2640 -25 0 -25 -1 2 2631 c2 1446 5 2636 8 2643 3 8 13 12 22
10 17 -3 18 -135 18 -2643z m-2292 2579 l-5 -41 -38 21 c-22 12 -36 26 -33 33
3 7 8 11 12 9 3 -2 20 2 36 9 17 6 31 12 32 11 1 -1 -1 -20 -4 -42z m-6448 -4
c3 -5 1 -10 -4 -10 -6 0 -11 5 -11 10 0 6 2 10 4 10 3 0 8 -4 11 -10z m11058
-192 c-20 -10 -38 -18 -39 -18 -1 0 -4 12 -6 28 -3 15 -9 36 -13 46 -7 16 -1
15 43 -10 l51 -29 -36 -17z m-5145 -31 c-6 -17 -12 -33 -14 -35 -4 -6 -64 28
-64 36 0 9 73 40 82 35 4 -2 2 -18 -4 -36z m5025 -72 c40 -16 47 -30 47 -88
-1 -83 -117 -162 -162 -109 -47 54 -19 176 47 203 28 11 28 11 68 -6z m-10685
-110 c1 -1 -9 -10 -24 -20 -29 -19 -38 -13 -48 27 l-6 27 37 -16 c21 -8 39
-16 41 -18z m11313 5 c9 0 22 -7 29 -15 10 -12 6 -18 -22 -35 l-33 -20 -6 28
c-12 49 -10 67 3 54 7 -7 20 -12 29 -12z m-6195 -6 c-3 -9 -6 -24 -6 -35 0
-26 -19 -24 -55 5 l-30 24 35 10 c52 15 63 14 56 -4z m-551 -167 c-8 -12 -15
-29 -15 -39 0 -14 -6 -13 -40 9 -42 28 -39 43 7 43 12 0 24 4 28 10 3 5 12 7
20 4 13 -5 13 -9 0 -27z m-4047 8 c30 -6 46 -25 20 -25 -6 0 -22 -10 -34 -21
l-23 -21 -15 37 c-20 47 -20 47 2 41 9 -2 32 -7 50 -11z m11372 -75 c0 -3 -15
-15 -34 -27 l-34 -22 -5 22 c-3 12 -8 32 -12 44 -7 21 -7 21 39 5 25 -9 46
-19 46 -22z m-10827 -51 c20 -5 37 -13 36 -17 0 -4 -13 -18 -30 -30 l-29 -24
-15 36 c-22 53 -23 52 38 35z m2914 1 c-1 -3 -9 -18 -17 -35 -8 -16 -15 -31
-16 -33 -1 -2 -17 11 -35 27 -33 31 -32 34 16 44 27 5 56 4 52 -3z m683 -60
c-9 -6 -9 -9 1 -13 9 -3 10 -6 2 -6 -6 -1 -15 4 -18 9 -9 14 4 32 17 24 7 -4
6 -9 -2 -14z m7159 -20 c25 -13 35 -40 15 -40 -10 0 -14 6 -11 14 4 10 1 13
-7 10 -7 -3 -16 2 -19 10 -7 19 -3 20 22 6z m-10141 -15 c1 -1 -10 -16 -25
-32 l-28 -30 -22 33 c-11 18 -19 35 -16 38 5 5 84 -3 91 -9z m1710 -18 c-13
-17 -24 -33 -24 -35 -1 -3 -64 58 -64 61 0 1 25 3 55 4 l55 2 -22 -32z m9032
1 c25 -9 25 -10 5 -23 -11 -8 -26 -19 -33 -26 -15 -13 -14 -13 -30 24 -22 51
-18 53 58 25z m-10173 -22 c3 -3 -6 -18 -21 -32 -14 -15 -27 -25 -29 -23 -1 2
-13 19 -26 38 l-24 34 47 -5 c26 -3 50 -8 53 -12z m593 7 c-1 -5 -13 -23 -29
-40 l-27 -33 -22 30 c-12 16 -22 31 -22 34 0 4 32 10 83 14 9 1 17 -1 17 -5z
m10187 -132 c8 -4 2 -15 -22 -34 l-34 -27 -7 23 c-3 12 -14 30 -22 40 -16 18
-15 18 28 12 25 -4 50 -10 57 -14z m-9547 -26 c7 -8 10 -22 6 -30 -3 -8 -1
-15 5 -15 6 0 7 -5 4 -10 -4 -6 -11 -8 -16 -5 -5 4 -9 -1 -9 -10 0 -9 5 -13
10 -10 6 3 10 1 10 -5 0 -7 -6 -10 -12 -7 -16 5 -18 47 -5 65 7 9 4 17 -9 27
-10 8 -14 15 -8 15 6 0 17 -7 24 -15z m10127 -69 c3 -3 -8 -18 -25 -34 l-31
-30 -21 35 c-11 19 -20 36 -20 37 0 6 91 -2 97 -8z m-13628 -45 c25 -18 38
-19 187 -12 87 4 161 6 162 5 4 -3 -76 -415 -80 -420 -8 -7 -319 -36 -332 -31
-13 5 -16 25 -16 114 0 60 -5 146 -10 192 -13 98 -8 121 26 121 27 0 32 15 9
24 -8 3 -15 10 -15 16 0 17 40 11 69 -9z m16901 -3 c-26 -21 -19 -38 16 -38
l25 0 -6 -107 c-5 -103 -21 -254 -30 -299 -4 -19 -8 -20 -52 -12 -27 5 -93 13
-148 17 -55 5 -111 13 -125 19 -14 6 -22 11 -19 11 4 1 0 31 -8 69 -8 37 -16
83 -19 102 -2 19 -10 62 -18 95 -8 33 -17 82 -21 108 l-7 49 29 -6 c40 -7 231
-20 273 -17 19 1 41 8 49 15 7 8 29 14 48 13 l35 -1 -22 -18z m-950 7 c0 -3
-10 -19 -22 -35 l-22 -30 -29 27 -28 28 23 6 c29 9 78 11 78 4z m-16250 -13
c0 -15 49 -32 90 -32 45 0 44 3 59 -155 22 -225 23 -263 4 -269 -33 -9 -258
-28 -292 -25 -33 4 -35 7 -67 94 -19 50 -37 99 -42 110 -18 39 -53 130 -57
145 -2 8 -7 25 -11 38 -3 12 -2 22 2 23 74 5 129 10 172 15 52 5 53 6 33 23
-12 10 -21 20 -21 23 0 3 21 6 47 7 26 1 49 3 51 6 9 8 32 6 32 -3z m14487
-10 c8 -5 4 -16 -14 -36 -25 -29 -26 -29 -40 -10 -37 49 -36 54 4 54 21 0 43
-4 50 -8z m3082 -1 c10 -7 8 -12 -10 -24 -30 -22 -17 -26 98 -30 51 -2 96 -6
99 -10 4 -4 -18 -71 -49 -149 -30 -79 -63 -170 -72 -204 l-17 -61 -72 3 c-39
2 -118 8 -175 15 l-103 12 6 51 c3 28 11 116 16 195 13 171 18 184 65 175 26
-5 40 -1 61 15 20 16 41 21 83 21 31 0 62 -4 70 -9z m-2491 -26 c2 -2 -6 -17
-18 -33 l-22 -30 -29 33 c-16 18 -29 36 -29 40 0 7 91 -3 98 -10z m565 -24
l-26 -39 -23 28 c-35 41 -31 50 25 50 l50 0 -26 -39z m12 -131 c3 -6 -1 -7 -9
-4 -18 7 -21 14 -7 14 6 0 13 -4 16 -10z m13 -46 c46 -52 11 -184 -54 -200
-63 -16 -130 118 -94 186 28 53 107 60 148 14z m-2423 -72 c-3 -3 -11 0 -18 7
-9 10 -8 11 6 5 10 -3 15 -9 12 -12z m3873 -214 c2 -4 21 -8 43 -8 37 0 39 -1
39 -32 0 -18 -7 -87 -15 -153 -8 -65 -15 -144 -15 -173 l0 -54 -29 5 c-15 3
-52 9 -82 12 -96 11 -98 12 -104 53 -19 116 -30 175 -46 244 -11 42 -19 88
-19 102 l0 26 113 -7 c61 -3 114 -10 115 -15z m-16573 -15 c-4 -15 -11 -53
-16 -83 -5 -30 -13 -71 -19 -90 -5 -19 -10 -54 -10 -78 0 -24 -5 -63 -11 -86
-11 -43 -11 -43 -62 -50 -29 -3 -75 -6 -103 -6 l-51 0 -6 38 c-4 20 -11 102
-17 182 -6 80 -13 153 -16 162 -4 13 4 18 38 22 68 9 97 11 192 14 l88 3 -7
-28z m-353 -93 c4 -47 12 -134 18 -194 5 -60 8 -111 6 -114 -2 -2 -51 -4 -107
-5 l-104 -2 -18 55 c-11 30 -42 115 -70 188 -27 73 -48 134 -46 136 11 9 155
23 229 22 l85 -1 7 -85z m17253 80 c128 -15 135 -17 128 -38 -11 -35 -56 -147
-61 -157 -4 -5 -7 -15 -8 -20 -1 -6 -15 -44 -32 -85 -16 -41 -32 -82 -35 -91
-4 -13 -16 -16 -59 -13 -29 2 -74 3 -100 4 l-48 0 0 48 c0 26 7 102 15 167 8
66 15 137 15 158 l0 37 48 0 c26 0 88 -5 137 -10z m-17210 -662 c0 -100 10
-254 24 -361 6 -44 13 -127 17 -185 3 -59 8 -110 10 -114 5 -8 20 -175 23
-256 1 -16 5 -21 14 -16 9 6 9 5 0 -7 -9 -11 -9 -34 -2 -89 5 -41 14 -140 20
-220 7 -108 14 -147 24 -153 8 -4 15 -13 15 -20 0 -7 -4 -6 -11 3 -7 11 -9 -5
-5 -55 3 -38 8 -110 12 -160 4 -65 11 -93 23 -103 9 -7 10 -11 4 -7 -10 4 -13
-5 -13 -35 0 -23 3 -39 8 -36 4 2 6 -14 3 -37 -4 -43 17 -275 27 -291 3 -5 5
-36 4 -68 -1 -43 2 -57 11 -51 7 4 5 -1 -3 -11 -13 -16 -12 -20 3 -31 18 -13
24 -31 8 -20 -17 10 -9 -59 8 -73 9 -8 10 -10 2 -6 -11 6 -12 -5 -7 -57 4 -35
9 -100 12 -144 2 -44 11 -133 20 -198 8 -66 14 -126 13 -135 -5 -57 3 -245 10
-233 5 8 7 -4 4 -33 -3 -25 -2 -46 3 -46 5 0 7 -21 5 -46 -2 -26 1 -44 5 -41
5 3 10 -52 11 -120 1 -69 5 -129 10 -132 4 -3 9 -42 10 -86 4 -113 25 -335 32
-335 4 0 5 -18 3 -40 -2 -22 3 -104 12 -182 9 -79 16 -159 17 -178 1 -19 7
-96 15 -170 7 -74 16 -162 19 -195 13 -162 18 -205 24 -205 3 0 7 -47 8 -105
2 -97 1 -105 -17 -105 -26 0 -30 10 -31 82 -1 35 -4 67 -7 73 -3 5 -5 25 -3
43 1 19 -1 32 -6 29 -4 -3 -9 36 -10 87 -3 147 -34 416 -47 409 -7 -4 -6 -1 1
8 11 13 9 141 -3 160 -2 4 -6 49 -9 100 -4 52 -13 155 -21 229 -8 74 -16 167
-18 206 -3 40 -9 116 -15 170 -6 55 -13 158 -15 229 -2 72 -9 175 -15 230 -23
211 -43 423 -47 495 -3 41 -11 131 -18 200 -8 69 -14 140 -15 159 -1 19 -3 49
-5 65 -2 17 -9 87 -15 156 -7 69 -19 190 -28 270 -8 80 -15 158 -14 173 1 15
-6 87 -14 160 -9 73 -18 170 -20 217 -3 47 -9 119 -15 160 -5 41 -12 120 -15
174 -4 55 -8 103 -11 108 -3 5 -7 34 -9 66 -8 139 -18 267 -21 273 -1 3 -4 46
-4 95 -1 49 -6 121 -11 159 -5 39 -11 108 -13 155 -2 47 -5 90 -6 95 -5 25 2
35 23 35 21 0 22 -4 22 -82z m15273 -1943 l0 -30 -8 30 c-4 17 -8 41 -8 55 l0
25 8 -25 c4 -14 8 -38 8 -55z m644 50 c91 -16 336 -82 358 -95 32 -20 -1 -18
-70 4 -41 13 -93 27 -115 30 -22 4 -62 13 -90 21 -27 8 -71 19 -97 26 -27 6
-48 16 -48 21 0 5 9 7 19 3 11 -3 30 -8 43 -10z m63 -56 c66 -17 134 -35 150
-39 17 -5 47 -13 68 -19 41 -10 54 -18 45 -26 -3 -3 -18 -1 -33 5 -16 6 -40
13 -54 15 -76 11 -340 93 -306 95 6 0 64 -14 130 -31z m788 14 c-7 -2 -19 -2
-25 0 -7 3 -2 5 12 5 14 0 19 -2 13 -5z m-905 -33 c16 -9 132 -40 290 -77 38
-9 60 -19 55 -24 -6 -6 -50 1 -109 17 -54 15 -115 30 -135 34 -57 11 -138 43
-133 52 7 10 10 10 32 -2z m-532 -140 c2 -8 -9 12 -26 45 -16 33 -30 67 -30
75 0 13 43 -79 56 -120z m573 74 c98 -24 261 -74 261 -81 0 -8 -65 6 -172 37
-185 55 -234 79 -89 44z m-412 -216 c8 -14 -55 23 -70 40 -6 8 6 4 26 -8 20
-12 40 -27 44 -32z m478 -33 c-16 -14 -33 -25 -36 -25 -4 0 -9 -10 -12 -22 -4
-12 -9 -20 -12 -16 -12 12 18 56 48 71 44 22 47 20 12 -8z m255 15 c0 -13 -11
-13 -30 0 -12 8 -11 10 8 10 12 0 22 -4 22 -10z m74 -16 c26 -9 45 -18 43 -20
-2 -2 -28 5 -58 15 -30 11 -49 20 -43 20 6 1 32 -6 58 -15z m92 -39 c10 -8 14
-15 8 -15 -5 0 -19 7 -30 15 -10 8 -14 15 -8 15 5 0 19 -7 30 -15z m-603 -22
c-7 -2 -19 -2 -25 0 -7 3 -2 5 12 5 14 0 19 -2 13 -5z m688 -43 c16 -21 29
-28 48 -26 14 2 19 1 11 -1 -8 -3 -19 -9 -24 -14 -16 -14 -24 -11 -32 13 -4
13 -21 36 -38 52 -23 21 -25 26 -9 17 13 -6 33 -25 44 -41z m-618 33 c-7 -2
-21 -2 -30 0 -10 3 -4 5 12 5 17 0 24 -2 18 -5z m825 -43 c55 -20 101 -30 139
-30 44 0 68 6 110 30 57 32 94 37 131 16 l24 -13 -43 -37 c-58 -49 -121 -67
-196 -56 -69 10 -76 12 -171 57 -45 21 -89 34 -114 35 -38 0 -40 2 -23 14 27
20 52 18 143 -16z m2 -50 c47 -22 80 -40 74 -40 -7 0 -52 18 -100 40 -49 22
-82 40 -74 40 8 0 53 -18 100 -40z m-337 9 c31 -16 97 -81 97 -95 0 -18 30
-26 46 -13 16 13 91 6 106 -9 12 -12 18 -82 7 -82 -5 0 -9 -18 -9 -39 0 -56
-8 -71 -40 -71 -32 0 -67 30 -106 91 -15 24 -35 53 -45 64 -9 11 -26 40 -39
65 -12 25 -29 57 -37 73 -16 30 -12 32 20 16z m462 -59 c13 -6 15 -9 5 -9 -8
0 -22 4 -30 9 -18 12 -2 12 25 0z m-3058 -34 c6 -6 -57 -119 -69 -124 -4 -2
-8 -9 -8 -16 0 -8 -14 -42 -30 -77 -17 -35 -28 -55 -26 -44 12 50 18 98 20
161 1 38 8 80 15 93 11 20 18 23 53 18 22 -3 42 -8 45 -11z m3018 -113 c-29
-20 -48 -17 -34 6 8 12 19 16 32 13 19 -5 19 -6 2 -19z m-4945 -378 c0 -2 -24
-20 -52 -38 -84 -54 -197 -180 -230 -257 -31 -73 -38 -92 -57 -168 -16 -65
-29 -166 -31 -235 0 -10 -3 -16 -7 -14 -5 3 -8 -11 -9 -31 0 -21 -6 -158 -12
-307 -7 -148 -15 -335 -18 -415 -3 -80 -7 -147 -9 -149 -2 -2 -59 4 -127 13
-68 8 -148 18 -179 21 l-57 6 9 37 c4 20 20 102 34 182 56 299 121 500 209
644 17 28 35 54 41 58 5 4 33 5 61 2 39 -5 51 -3 52 7 4 48 14 116 18 129 3 8
9 35 14 60 5 25 13 56 18 70 5 14 10 28 10 33 2 20 87 169 99 174 7 3 11 8 8
12 -6 11 53 64 136 121 73 51 79 54 79 45z m4145 -194 c62 -77 116 -126 174
-159 65 -37 67 -37 176 -36 76 1 123 6 154 17 24 10 47 17 50 17 8 0 6 -114
-2 -127 -2 -4 -5 -33 -6 -63 -1 -30 -6 -89 -11 -130 -5 -41 -10 -91 -11 -110
-1 -19 -8 -100 -16 -180 -7 -80 -16 -181 -19 -225 -2 -44 -9 -118 -14 -165 -5
-47 -9 -92 -10 -100 -5 -75 -13 -156 -25 -270 -8 -74 -14 -167 -12 -207 1 -39
-1 -69 -4 -67 -4 2 -10 -29 -14 -69 -3 -39 -12 -79 -19 -87 -8 -8 -16 -53 -20
-100 -5 -79 -17 -165 -51 -385 -8 -49 -17 -116 -21 -149 -9 -75 -22 -55 -29
45 -2 41 -11 119 -19 174 -8 55 -22 154 -31 220 -21 152 -42 304 -60 425 -18
122 -40 276 -60 415 -8 61 -22 151 -31 200 -8 50 -17 110 -19 135 -3 25 -11
86 -19 135 -8 50 -19 128 -26 175 -6 47 -17 126 -26 175 -8 50 -16 108 -19
130 -3 22 -11 72 -19 110 -39 184 -46 233 -46 328 l0 102 43 -75 c24 -41 52
-86 62 -99z m-15558 27 c-3 -8 -6 -5 -6 6 -1 11 2 17 5 13 3 -3 4 -12 1 -19z
m16309 -160 c-4 -35 -11 -121 -16 -192 -5 -70 -14 -165 -19 -210 -5 -44 -9
-88 -9 -96 1 -14 -15 -184 -48 -526 -9 -89 -15 -174 -14 -190 1 -16 1 -31 0
-34 -1 -3 -4 -30 -5 -60 -1 -30 -7 -95 -14 -145 -6 -49 -13 -117 -15 -150 -11
-170 -19 -227 -33 -232 -26 -10 -32 11 -22 92 5 44 11 118 14 165 3 47 11 142
18 211 7 70 13 158 12 198 0 39 2 65 5 58 7 -20 25 172 25 275 0 53 3 94 6 92
6 -3 18 115 24 231 5 79 15 185 25 250 5 33 8 93 7 133 -1 39 1 72 6 72 4 0 7
20 7 44 0 27 6 51 16 60 29 30 37 19 30 -46z m-3290 -26 c6 -4 13 -33 16 -66
l5 -58 -46 6 c-25 3 -93 10 -151 16 -57 6 -106 13 -108 15 -3 2 22 16 53 30
52 23 60 24 75 10 22 -20 21 -20 71 20 44 35 64 41 85 27z m-2776 -72 c-24
-15 -37 -11 -16 5 11 8 22 12 25 9 3 -3 -1 -9 -9 -14z m2558 -59 c29 -6 88
-14 130 -17 143 -12 118 -22 -60 -23 -100 -1 -189 -6 -205 -12 -30 -11 -160
-1 -339 27 -50 8 -113 14 -139 14 -57 0 -52 11 8 20 65 11 545 4 605 -9z
m-628 -40 c41 -5 87 -9 102 -10 14 0 68 -7 118 -15 51 -9 95 -15 98 -14 4 0
25 0 47 -1 l40 -2 -25 -17 c-14 -9 -46 -37 -72 -63 l-47 -48 -148 19 c-81 10
-168 21 -193 24 -127 13 -170 19 -170 25 0 4 -17 5 -37 3 l-38 -5 20 23 c23
26 130 82 139 73 3 -4 6 -1 6 5 0 13 27 21 60 16 14 -2 59 -7 100 -13z m899
-88 c23 -70 30 -74 148 -90 59 -8 132 -13 161 -11 62 4 59 12 37 -150 -7 -59
-21 -172 -30 -252 -9 -80 -23 -192 -31 -250 -8 -58 -16 -134 -19 -170 -3 -36
-10 -94 -16 -130 -6 -36 -12 -94 -15 -129 -3 -36 -7 -68 -10 -72 -4 -7 -18 -6
-134 11 -36 6 -108 14 -160 20 -52 5 -131 14 -175 20 -150 20 -260 33 -305 36
-53 4 -126 13 -156 20 -24 6 -24 5 1 231 8 73 22 195 31 270 8 76 21 188 29
248 8 61 15 122 15 137 0 46 95 178 159 223 81 55 160 74 317 75 l141 0 12
-37z m-1139 -152 c91 -11 178 -22 195 -23 29 -3 30 -5 27 -48 -2 -25 -12 -115
-22 -200 -11 -85 -27 -211 -35 -280 -30 -255 -48 -395 -51 -408 -4 -14 -49
-12 -184 8 -55 8 -158 20 -389 47 l-43 5 7 56 c4 31 18 109 32 172 14 63 32
144 39 179 50 229 192 532 242 517 9 -3 91 -14 182 -25z m1800 -115 c0 -7 -7
-19 -15 -26 -12 -10 -15 -9 -15 7 0 11 3 23 7 26 11 12 23 8 23 -7z m-47 -193
c-3 -10 -9 -22 -13 -28 -6 -8 -43 -117 -82 -240 -26 -81 -67 -261 -82 -360 -3
-16 -12 -70 -20 -119 -9 -49 -13 -92 -11 -96 3 -4 -2 -72 -11 -151 -19 -174
-22 -581 -5 -754 6 -66 14 -158 16 -205 3 -47 11 -122 18 -167 8 -46 11 -83 6
-83 -14 0 -164 50 -179 60 -12 7 -16 44 -18 197 -6 295 37 700 123 1173 40
218 123 521 172 625 54 114 107 206 86 148z m-3484 -750 c12 -9 14 -16 5 -30
-14 -23 -39 -23 -38 0 6 77 7 81 11 62 3 -11 13 -25 22 -32z m5906 -363 c3 -6
-1 -7 -9 -4 -18 7 -21 14 -7 14 6 0 13 -4 16 -10z m-15780 -1069 c3 -5 2 -12
-3 -15 -5 -3 -9 1 -9 9 0 17 3 19 12 6z m-17 -136 c-3 -3 -9 2 -12 12 -6 14
-5 15 5 6 7 -7 10 -15 7 -18z m342 -475 c0 -5 -2 -10 -4 -10 -3 0 -8 5 -11 10
-3 6 -1 10 4 10 6 0 11 -4 11 -10z"/>
<path d="M8853 11941 c10 -12 9 -14 -6 -8 -11 4 -16 3 -12 -3 9 -15 23 -12 34
8 7 14 6 18 -9 18 -15 0 -17 -3 -7 -15z"/>
<path d="M8884 11939 c-4 -7 -3 -9 4 -5 5 3 13 0 15 -6 4 -9 6 -10 6 -1 1 17
-16 25 -25 12z"/>
<path d="M8920 11837 c0 -10 5 -15 10 -12 6 3 10 2 10 -4 0 -5 -4 -13 -10 -16
-12 -8 -13 -45 -1 -45 17 0 22 63 6 79 -13 14 -15 13 -15 -2z"/>
<path d="M8956 11804 c-4 -9 -4 -19 -1 -22 2 -3 7 3 11 12 4 9 4 19 1 22 -2 3
-7 -3 -11 -12z"/>
<path d="M8720 11795 c0 -5 5 -17 10 -25 5 -8 10 -10 10 -5 0 6 -5 17 -10 25
-5 8 -10 11 -10 5z"/>
<path d="M8950 11759 c0 -5 5 -7 10 -4 6 3 10 -1 10 -10 0 -9 -4 -13 -10 -10
-6 3 -7 -1 -4 -10 5 -11 2 -14 -10 -9 -9 3 -16 14 -16 23 -1 10 -6 6 -16 -11
-17 -33 -51 -37 -109 -12 -20 8 -39 13 -42 10 -3 -3 6 -8 21 -12 14 -3 23 -10
20 -15 -3 -5 -2 -9 3 -8 4 1 19 1 33 0 18 -1 21 -4 12 -10 -11 -7 -11 -9 2
-14 9 -4 15 -1 13 6 -1 6 8 13 21 15 15 2 22 -2 22 -12 0 -19 -16 -21 -23 -3
-3 7 -6 5 -6 -5 -1 -13 7 -18 27 -18 33 0 59 15 43 24 -6 4 -11 2 -11 -4 0 -6
-5 -8 -10 -5 -7 4 -6 13 1 26 10 20 11 20 24 2 8 -10 15 -15 16 -10 3 13 6 27
9 35 7 18 5 38 -5 44 -14 11 -25 10 -25 -3z m-28 -61 c-7 -7 -12 -8 -12 -2 0
14 12 26 19 19 2 -3 -1 -11 -7 -17z"/>
<path d="M12680 10365 c-13 -14 -22 -27 -19 -29 2 -2 14 10 27 25 29 36 24 38
-8 4z"/>
<path d="M5684 10350 c0 -11 4 -20 8 -20 4 0 8 5 8 11 0 5 5 7 10 4 6 -3 10
-2 10 3 0 8 -22 22 -34 22 -1 0 -2 -9 -2 -20z"/>
<path d="M12110 10350 c6 -11 15 -20 20 -20 6 0 2 9 -7 20 -10 11 -19 20 -21
20 -1 0 2 -9 8 -20z"/>
<path d="M5726 10315 c4 -8 9 -15 13 -15 4 0 8 7 8 15 0 8 -6 15 -13 15 -8 0
-11 -6 -8 -15z"/>
<path d="M5690 10316 c0 -2 7 -7 16 -10 8 -3 12 -2 9 4 -6 10 -25 14 -25 6z"/>
<path d="M12645 10290 c-3 -11 -3 -30 0 -41 5 -16 4 -19 -5 -14 -9 6 -11 4 -4
-6 4 -8 7 -24 5 -36 -2 -18 3 -23 18 -23 21 0 24 -18 6 -33 -6 -4 2 -17 20
-32 36 -30 48 -32 40 -5 -4 13 -1 22 10 26 12 5 13 9 4 20 -6 8 -17 14 -23 14
-6 0 -4 -5 4 -10 13 -8 13 -10 -1 -10 -9 0 -20 -7 -23 -16 -3 -8 -11 -12 -17
-9 -7 5 -5 13 7 26 15 17 15 19 0 34 -9 9 -20 13 -26 10 -5 -3 -10 -1 -10 4 0
6 5 11 11 11 5 0 8 4 4 10 -3 5 -6 30 -7 55 -1 50 -3 55 -13 25z m71 -180 c0
-12 -4 -16 -9 -11 -5 5 -6 14 -3 20 10 15 12 14 12 -9z"/>
<path d="M5493 10285 c0 -8 4 -12 9 -9 5 3 6 10 3 15 -9 13 -12 11 -12 -6z"/>
<path d="M12886 10285 c-6 -16 -9 -17 -16 -5 -14 21 -12 6 2 -25 10 -22 9 -28
-3 -36 -12 -7 -11 -9 2 -9 19 0 32 37 15 44 -8 3 -7 7 3 14 7 5 11 16 9 23 -3
9 -7 7 -12 -6z"/>
<path d="M5720 10279 c-10 -6 -11 -9 -2 -9 6 0 12 -7 12 -17 0 -19 13 -9 16
12 3 20 -9 26 -26 14z"/>
<path d="M5510 10262 c0 -6 5 -14 10 -17 6 -4 8 -10 6 -14 -3 -4 11 -24 30
-45 19 -20 34 -33 34 -28 0 4 -9 18 -20 30 -11 12 -20 24 -20 28 0 3 -9 17
-20 31 -11 14 -20 21 -20 15z"/>
<path d="M12845 10260 c3 -5 -9 -24 -27 -41 l-33 -31 33 26 c19 14 38 23 44
20 6 -4 5 2 -1 15 -7 11 -14 21 -17 21 -3 0 -2 -4 1 -10z"/>
<path d="M5652 10211 c-16 -16 -31 -22 -48 -18 -19 3 -22 1 -15 -6 8 -8 20 -8
43 1 33 12 48 9 48 -11 0 -8 -3 -8 -9 2 -6 9 -11 10 -15 2 -4 -6 -1 -11 6 -11
9 0 9 -3 -2 -10 -8 -5 -10 -10 -5 -11 6 0 1 -4 -10 -9 l-20 -9 20 0 c13 0 26
11 36 32 11 22 22 31 35 29 11 -2 16 -1 12 4 -4 4 -3 13 2 19 14 17 -18 29
-35 15 -7 -6 -15 -7 -17 -3 -1 4 -13 -3 -26 -16z m68 8 c0 -5 -4 -8 -9 -5 -5
3 -12 -1 -15 -10 -6 -17 -26 -10 -26 9 0 8 3 8 9 -1 7 -11 9 -11 14 2 7 18 27
22 27 5z"/>
<path d="M12830 10205 c-7 -9 -11 -18 -8 -20 3 -3 11 1 18 10 7 9 11 18 8 20
-3 3 -11 -1 -18 -10z"/>
<path d="M12843 10173 c-13 -18 -30 -29 -48 -30 -20 -1 -24 2 -14 8 11 7 11 9
1 9 -7 0 -10 4 -7 10 4 6 -1 7 -11 3 -10 -4 -13 -8 -7 -10 13 -5 6 -33 -11
-46 -6 -5 0 -5 13 -2 17 5 22 4 16 -5 -5 -9 -4 -11 4 -6 6 4 8 12 5 18 -5 7
-1 9 9 5 10 -4 26 6 46 29 28 32 36 44 28 44 -2 0 -12 -12 -24 -27z"/>
<path d="M3138 10163 c-25 -30 -32 -49 -9 -25 12 12 26 22 31 22 6 0 10 5 10
10 0 15 -15 12 -32 -7z"/>
<path d="M12790 10170 c0 -5 5 -10 10 -10 6 0 10 5 10 10 0 6 -4 10 -10 10 -5
0 -10 -4 -10 -10z"/>
<path d="M2096 10113 c-6 -14 -5 -15 5 -6 7 7 10 15 7 18 -3 3 -9 -2 -12 -12z"/>
<path d="M4272 10110 c0 -14 2 -19 5 -12 2 6 2 18 0 25 -3 6 -5 1 -5 -13z"/>
<path d="M4280 10071 c0 -6 5 -13 10 -16 6 -4 7 -11 4 -17 -4 -7 -2 -8 4 -4 9
5 9 13 2 27 -11 20 -20 25 -20 10z"/>
<path d="M4460 10050 c0 -5 7 -10 15 -10 8 0 15 -5 15 -11 0 -6 -8 -8 -19 -4
-11 3 -22 1 -26 -5 -4 -6 -1 -9 6 -8 6 2 14 -3 17 -11 2 -8 0 -11 -6 -7 -6 3
-14 1 -18 -5 -4 -7 -3 -9 2 -6 6 3 16 2 24 -4 12 -7 12 -9 2 -9 -8 0 -12 -6
-9 -12 2 -7 -3 -19 -12 -26 -14 -10 -13 -11 4 -5 27 9 33 20 30 54 -2 28 9 41
17 19 2 -6 9 3 15 21 11 28 10 31 -6 26 -10 -2 -26 0 -35 5 -10 6 -16 5 -16
-2z"/>
<path d="M13918 10053 c6 -2 18 -2 25 0 6 3 1 5 -13 5 -14 0 -19 -2 -12 -5z"/>
<path d="M13965 10050 c-3 -5 -1 -10 4 -10 6 0 11 5 11 10 0 6 -2 10 -4 10 -3
0 -8 -4 -11 -10z"/>
<path d="M4306 10022 c-3 -5 5 -21 18 -35 13 -14 22 -28 20 -31 -2 -4 1 -2 7
3 13 11 39 3 39 -11 0 -6 -8 -7 -17 -4 -17 7 -17 6 -1 -11 22 -22 49 -4 30 20
-7 8 -8 18 -4 22 4 5 -1 5 -10 2 -10 -3 -20 -2 -23 3 -3 5 -13 6 -22 3 -12 -5
-15 -2 -10 10 6 17 -18 44 -27 29z"/>
<path d="M4413 9985 c-3 -9 -3 -18 -1 -21 3 -3 8 4 11 16 6 23 -1 27 -10 5z"/>
<path d="M4435 9960 c-3 -5 -1 -10 4 -10 6 0 11 5 11 10 0 6 -2 10 -4 10 -3 0
-8 -4 -11 -10z"/>
<path d="M3810 9936 c0 -2 7 -7 16 -10 8 -3 12 -2 9 4 -6 10 -25 14 -25 6z"/>
<path d="M3869 9893 c-13 -16 -12 -17 4 -4 9 7 17 15 17 17 0 8 -8 3 -21 -13z"/>
<path d="M13831 9847 c10 -36 19 -47 19 -23 0 9 5 14 10 11 7 -4 7 -12 0 -25
-7 -14 -5 -24 10 -42 16 -19 19 -19 13 -4 -4 13 -3 17 5 12 6 -3 13 -2 17 4 3
5 -3 10 -14 10 -12 0 -21 5 -21 11 0 6 7 9 15 5 26 -9 16 8 -15 29 -17 11 -28
25 -26 31 2 6 -2 11 -9 11 -9 0 -10 -8 -4 -30z"/>
<path d="M17399 9813 c4 -15 13 -28 19 -29 7 -1 8 0 2 3 -5 2 -10 13 -10 23 0
10 -4 21 -9 24 -5 4 -6 -5 -2 -21z"/>
<path d="M17036 9745 c-3 -8 -1 -15 4 -15 6 0 10 7 10 15 0 8 -2 15 -4 15 -2
0 -6 -7 -10 -15z"/>
<path d="M16926 9627 c3 -10 9 -15 12 -12 3 3 0 11 -7 18 -10 9 -11 8 -5 -6z"/>
<path d="M13207 8805 c-23 -17 -34 -89 -17 -110 17 -20 56 -19 70 3 9 13 10 8
6 -28 -9 -80 -83 -106 -155 -54 l-36 26 33 -31 c18 -17 41 -32 52 -32 11 -1
26 -2 33 -3 23 -4 65 27 78 58 14 30 16 31 79 30 41 -1 58 2 45 7 -11 4 -41 8
-67 8 l-46 1 -7 43 c-10 63 -15 76 -33 86 -12 6 -23 5 -35 -4z m8 -35 c3 -5
-1 -10 -10 -10 -9 0 -13 5 -10 10 3 6 8 10 10 10 2 0 7 -4 10 -10z"/>
<path d="M13853 8779 c-71 -41 -67 -47 4 -9 59 32 89 33 123 7 9 -7 5 -2 -8
11 -31 29 -57 28 -119 -9z"/>
<path d="M13112 8783 c-18 -7 -48 -67 -30 -61 7 3 13 10 13 17 0 7 11 21 25
31 24 19 20 25 -8 13z"/>
<path d="M13492 8742 c-72 -44 -89 -98 -52 -160 57 -93 210 -55 210 53 0 15 7
26 21 30 30 10 120 67 114 73 -2 3 -31 -11 -64 -31 -32 -21 -64 -37 -70 -37
-6 0 -14 -19 -17 -42 -8 -49 -31 -75 -76 -83 -46 -9 -84 8 -108 47 -25 42 -25
57 3 98 31 46 44 48 39 5 -4 -31 -1 -36 24 -45 40 -16 70 1 79 41 l7 33 19
-23 c11 -13 19 -19 19 -15 0 15 -76 84 -91 83 -8 0 -34 -13 -57 -27z m58 -12
c0 -12 -28 -25 -36 -17 -9 9 6 27 22 27 8 0 14 -5 14 -10z"/>
<path d="M13115 8750 c-3 -6 1 -7 9 -4 18 7 21 14 7 14 -6 0 -13 -4 -16 -10z"/>
<path d="M14000 8743 c0 -4 5 -15 10 -23 8 -13 10 -13 10 2 0 9 -4 20 -10 23
-5 3 -10 3 -10 -2z"/>
<path d="M13072 8680 c0 -19 2 -27 5 -17 2 9 2 25 0 35 -3 9 -5 1 -5 -18z"/>
<path d="M11465 8679 c-15 -7 -12 -7 14 -3 87 16 173 -45 186 -133 15 -103
-88 -199 -186 -173 -50 14 -88 46 -110 94 -10 23 -19 35 -19 28 0 -7 9 -30 20
-51 30 -60 108 -98 175 -85 49 9 112 67 125 114 12 43 29 54 65 40 20 -7 25
-17 25 -42 0 -48 38 -113 81 -137 57 -32 135 -29 186 8 41 30 73 89 73 137 0
22 4 25 23 21 12 -3 54 -8 92 -12 97 -9 104 -12 114 -48 9 -30 9 -30 10 -6 2
43 -25 56 -139 68 -58 6 -106 16 -108 21 -9 27 -52 77 -82 98 -29 20 -45 23
-90 20 -55 -4 -112 -34 -124 -65 -3 -7 12 1 34 18 97 78 231 26 255 -98 8 -46
-28 -120 -75 -151 -46 -31 -132 -28 -176 7 -55 43 -77 114 -54 175 5 14 6 26
1 26 -5 0 -11 -10 -14 -22 -5 -18 -8 -19 -21 -8 -9 7 -26 10 -39 8 -21 -4 -25
1 -35 37 -24 89 -132 149 -207 114z"/>
<path d="M11413 8655 c-30 -21 -63 -78 -62 -106 l1 -24 7 25 c7 24 11 25 72
23 44 -2 58 1 44 7 -11 5 -37 9 -57 9 -46 1 -48 14 -7 52 34 32 35 37 2 14z"/>
<path d="M7431 8631 c-50 -50 -47 -163 5 -198 24 -15 27 -15 52 4 51 38 64
132 27 189 -19 29 -58 31 -84 5z m42 -41 c-6 -23 -43 -28 -43 -5 0 15 30 36
41 29 4 -2 5 -13 2 -24z m-42 -53 c-13 -13 -26 -3 -16 12 3 6 11 8 17 5 6 -4
6 -10 -1 -17z"/>
<path d="M3496 8579 c-22 -17 -26 -28 -26 -70 0 -78 35 -129 88 -129 32 0 52
32 52 84 0 57 -19 95 -58 118 -29 17 -31 17 -56 -3z m58 -25 c19 -7 22 -44 3
-44 -17 0 -37 20 -37 37 0 14 10 16 34 7z m41 -53 c3 -5 1 -12 -5 -16 -5 -3
-10 1 -10 9 0 18 6 21 15 7z"/>
<path d="M7892 8568 c-29 -48 -34 -88 -19 -133 16 -47 51 -65 91 -47 46 21 72
124 45 175 -16 30 -28 37 -66 37 -25 0 -35 -7 -51 -32z m58 -16 c0 -24 -19
-42 -36 -35 -17 6 -18 25 -2 41 18 18 38 15 38 -6z m-49 -65 c-13 -13 -26 -3
-16 12 3 6 11 8 17 5 6 -4 6 -10 -1 -17z"/>
<path d="M11550 8585 c-17 -21 -24 -89 -11 -114 16 -29 55 -27 75 4 18 28 21
77 6 106 -13 22 -52 25 -70 4z m30 -18 c0 -7 -9 -20 -20 -30 -23 -19 -24 -18
-10 17 10 27 30 36 30 13z"/>
<path d="M11886 8549 c-21 -17 -26 -29 -26 -68 0 -26 5 -52 12 -59 46 -46 112
54 78 117 -15 29 -36 32 -64 10z m28 -17 c3 -5 -6 -19 -19 -30 -28 -25 -29
-24 -15 12 10 26 24 33 34 18z"/>
<path d="M5672 8526 c-1 -20 -11 -55 -22 -78 l-21 -43 36 39 c29 32 35 46 33
74 -4 47 -24 53 -26 8z"/>
<path d="M3049 8459 c-32 -32 -23 -118 15 -158 37 -39 60 -43 85 -17 29 31 31
103 3 148 -33 53 -68 62 -103 27z m75 -25 c9 -22 7 -34 -3 -34 -15 0 -42 31
-36 41 10 14 32 10 39 -7z m36 -55 c0 -5 -4 -9 -10 -9 -5 0 -10 7 -10 16 0 8
5 12 10 9 6 -3 10 -10 10 -16z"/>
<path d="M13388 8371 c-57 -8 -68 -16 -34 -25 24 -6 96 16 96 28 0 4 -3 5 -7
5 -5 -1 -29 -5 -55 -8z"/>
<path d="M5506 8348 c-11 -6 -43 -11 -72 -11 -53 0 -54 0 -47 -26 3 -14 10
-30 15 -36 20 -25 78 -118 78 -126 0 -4 6 -12 13 -16 7 -4 30 -35 51 -68 56
-91 132 -190 144 -188 5 1 9 -4 8 -12 -2 -25 222 -311 348 -443 71 -74 221
-208 283 -251 18 -12 38 -19 44 -15 8 4 9 3 5 -4 -6 -11 165 -100 224 -117 14
-4 39 -13 55 -20 67 -29 225 -64 350 -77 l29 -3 13 95 c7 52 15 115 18 140 3
25 13 68 21 97 8 29 17 64 20 79 12 68 90 217 138 264 22 22 34 40 27 40 -25
0 -122 -108 -200 -221 -92 -136 -138 -169 -250 -176 -68 -5 -224 27 -309 63
-129 56 -165 73 -232 112 -192 111 -358 259 -540 480 -47 57 -90 109 -97 116
-6 7 -29 42 -51 77 -80 131 -99 203 -65 241 18 20 8 23 -21 6z"/>
<path d="M11660 8165 c-24 -14 -24 -14 21 -15 25 0 54 7 65 15 18 13 16 14
-21 14 -22 0 -51 -6 -65 -14z"/>
<path d="M3530 8083 c-9 -2 -20 -14 -25 -26 -14 -30 -92 -50 -172 -43 -35 3
-63 2 -63 -3 0 -4 10 -17 23 -29 21 -20 27 -21 56 -11 19 7 57 9 87 6 62 -6
84 9 105 70 12 38 11 41 -11 36z"/>
<path d="M7611 8051 c-11 -7 -10 -11 5 -18 34 -16 144 -3 144 17 0 12 -130 13
-149 1z"/>
<path d="M15900 7973 c-55 -19 -83 -100 -61 -173 28 -95 124 -36 125 77 1 43
-3 57 -24 77 -14 13 -32 21 -40 19z m-7 -84 c-4 -4 -15 -4 -23 1 -12 7 -11 12
5 31 l20 21 3 -22 c2 -12 0 -26 -5 -31z m-28 -18 c3 -5 1 -12 -5 -16 -5 -3
-10 1 -10 9 0 18 6 21 15 7z"/>
<path d="M16364 7888 c-51 -58 -50 -140 1 -174 23 -15 27 -15 50 0 37 24 56
60 57 105 1 81 -62 121 -108 69z m40 -17 c10 -16 -5 -41 -25 -41 -10 0 -19 -4
-19 -10 0 -5 -4 -10 -9 -10 -9 0 0 24 22 58 10 14 24 16 31 3z"/>
<path d="M16850 7866 c0 -2 7 -7 16 -10 8 -3 12 -2 9 4 -6 10 -25 14 -25 6z"/>
<path d="M8161 7751 c-24 -16 -50 -43 -57 -59 -22 -54 -85 -112 -153 -144 -57
-26 -79 -30 -156 -32 -124 -2 -166 25 -177 114 -2 15 -10 26 -22 28 -17 4 -18
0 -13 -35 19 -115 94 -170 220 -161 95 6 176 51 273 151 88 92 150 167 137
167 -4 0 -28 -13 -52 -29z"/>
<path d="M8229 7720 c-37 -39 -92 -142 -122 -230 -26 -77 -70 -299 -81 -410
-3 -30 -12 -120 -21 -200 -8 -80 -14 -196 -14 -257 0 -122 -2 -119 57 -107
l30 6 1 127 c0 69 5 185 10 256 6 72 13 164 16 205 6 86 39 279 55 330 32 95
63 170 71 170 5 0 9 7 9 15 0 9 24 40 53 70 54 56 54 65 0 65 -17 0 -39 -13
-64 -40z"/>
<path d="M7460 7707 c0 -8 -13 -40 -29 -73 -85 -177 -188 -541 -216 -769 -4
-27 -13 -85 -21 -129 -8 -43 -14 -95 -14 -116 0 -33 4 -39 31 -50 38 -16 49
-4 49 54 0 125 93 573 169 821 17 55 31 109 31 120 0 11 9 44 20 74 16 41 18
56 9 67 -14 18 -29 18 -29 1z"/>
<path d="M12475 7431 c-3 -6 -1 -11 4 -11 6 0 11 -5 11 -11 0 -6 -7 -8 -16 -5
-10 4 -14 1 -12 -6 3 -7 16 -13 29 -13 19 0 24 5 24 25 0 26 -28 40 -40 21z"/>
<path d="M12412 7385 c0 -16 2 -22 5 -12 2 9 2 23 0 30 -3 6 -5 -1 -5 -18z"/>
<path d="M15973 7343 c-29 -6 -20 -27 22 -53 39 -24 82 -26 132 -5 35 15 36
16 17 29 -40 28 -112 40 -171 29z"/>
<path d="M12422 7310 c0 -14 2 -19 5 -12 2 6 2 18 0 25 -3 6 -5 1 -5 -13z"/>
<path d="M17048 7199 c-24 -13 -23 -36 3 -78 16 -26 23 -31 29 -21 10 16 3 33
-10 25 -15 -9 -19 40 -4 62 16 25 10 29 -18 12z"/>
<path d="M12432 7165 c0 -16 2 -22 5 -12 2 9 2 23 0 30 -3 6 -5 -1 -5 -18z"/>
<path d="M12442 7090 c0 -19 2 -27 5 -17 2 9 2 25 0 35 -3 9 -5 1 -5 -18z"/>
<path d="M12452 7020 c0 -14 2 -19 5 -12 2 6 2 18 0 25 -3 6 -5 1 -5 -13z"/>
<path d="M17288 6978 c5 -5 16 -8 23 -6 8 3 3 7 -10 11 -17 4 -21 3 -13 -5z"/>
<path d="M17530 6975 c-14 -8 -34 -15 -45 -16 -17 -1 -16 -2 5 -9 24 -8 23 -8
-8 -9 -26 -1 -46 -13 -88 -52 -30 -29 -54 -55 -54 -58 0 -6 76 -33 125 -45 11
-2 61 -16 110 -31 50 -15 97 -28 105 -30 8 -2 33 -10 55 -19 51 -19 23 -21
-36 -2 -24 7 -73 21 -109 31 -36 9 -76 21 -89 27 -14 5 -43 13 -65 18 -23 5
-59 13 -80 19 -43 11 -76 2 -36 -10 14 -4 90 -26 169 -49 80 -23 156 -44 170
-46 14 -3 37 -9 51 -14 85 -31 320 -89 325 -80 4 7 -81 35 -189 61 -48 12 -85
33 -46 26 23 -4 130 -34 256 -72 63 -19 83 -20 66 -3 -7 7 -12 29 -12 50 0 21
-13 65 -30 100 -25 53 -37 67 -79 90 -30 16 -57 25 -67 21 -11 -4 -15 -3 -10
5 3 6 2 13 -4 17 -5 3 -10 1 -10 -4 0 -6 -5 -11 -11 -11 -5 0 -7 5 -4 10 3 6
1 10 -4 10 -6 0 -11 -7 -11 -15 0 -8 8 -15 19 -15 10 0 42 -17 70 -37 51 -37
91 -100 107 -165 5 -24 3 -28 -15 -28 -43 0 -88 27 -95 56 -8 30 -41 82 -66
101 -35 28 -110 56 -180 68 -41 7 -83 16 -92 20 -21 9 -51 53 -43 65 8 14 -15
24 -28 11 -6 -6 -18 -11 -26 -11 -10 0 -4 8 14 20 34 23 23 27 -15 5z m468
-135 c23 -16 46 -40 52 -52 9 -18 6 -17 -16 7 -15 17 -43 40 -63 52 -20 12
-31 23 -25 23 6 0 29 -13 52 -30z m91 -150 c0 -23 -15 7 -22 45 l-6 30 14 -30
c8 -16 14 -37 14 -45z m8 -57 c-3 -10 -5 -4 -5 12 0 17 2 24 5 18 2 -7 2 -21
0 -30z"/>
<path d="M12462 6880 c0 -14 2 -19 5 -12 2 6 2 18 0 25 -3 6 -5 1 -5 -13z"/>
<path d="M12472 6800 c0 -14 2 -19 5 -12 2 6 2 18 0 25 -3 6 -5 1 -5 -13z"/>
<path d="M17265 6761 c-3 -5 19 -15 48 -21 30 -6 76 -20 103 -31 44 -18 45
-19 14 -15 -56 9 -113 23 -147 37 -26 11 -34 10 -48 -1 -14 -12 -9 -16 42 -32
32 -10 67 -18 79 -18 11 0 24 -4 30 -8 8 -8 52 -19 224 -58 36 -8 88 -21 115
-29 28 -7 82 -20 120 -30 39 -9 94 -23 124 -31 56 -14 68 -13 57 4 -5 9 -86
33 -108 33 -4 0 -27 7 -50 15 -24 8 -61 19 -83 24 -77 16 -308 80 -314 86 -9
10 44 -1 149 -29 85 -23 184 -49 348 -93 65 -17 62 -17 62 1 0 8 -17 18 -42
25 -70 17 -161 42 -193 52 -16 5 -77 22 -135 38 -356 95 -382 100 -395 81z"/>
<path d="M12470 6716 c0 -8 5 -18 10 -21 6 -3 10 3 10 14 0 12 -4 21 -10 21
-5 0 -10 -6 -10 -14z"/>
<path d="M12482 6645 c0 -16 2 -22 5 -12 2 9 2 23 0 30 -3 6 -5 -1 -5 -18z"/>
<path d="M12492 6575 c0 -16 2 -22 5 -12 2 9 2 23 0 30 -3 6 -5 -1 -5 -18z"/>
<path d="M18318 6543 c6 -2 18 -2 25 0 6 3 1 5 -13 5 -14 0 -19 -2 -12 -5z"/>
<path d="M12502 6505 c0 -16 2 -22 5 -12 2 9 2 23 0 30 -3 6 -5 -1 -5 -18z"/>
<path d="M18490 6490 c8 -5 26 -9 40 -9 23 0 23 1 5 9 -11 5 -29 9 -40 9 -17
1 -17 -1 -5 -9z"/>
<path d="M18440 6486 c0 -8 140 -48 153 -43 6 2 -18 11 -54 21 -35 9 -72 20
-81 22 -10 3 -18 3 -18 0z"/>
<path d="M12506 6455 c-3 -8 -1 -15 4 -15 6 0 10 7 10 15 0 8 -2 15 -4 15 -2
0 -6 -7 -10 -15z"/>
<path d="M18440 6456 c0 -9 20 -20 58 -30 31 -9 86 -25 122 -36 36 -11 92 -26
125 -34 141 -33 205 -54 205 -66 0 -8 -162 35 -194 52 -15 8 -18 7 -13 -6 8
-21 6 -21 -111 13 -143 41 -182 47 -182 27 0 -9 2 -16 4 -16 16 0 155 -32 171
-39 25 -11 157 -41 180 -41 14 0 15 -3 6 -14 -12 -15 -2 -27 32 -39 14 -5 20
-1 24 13 5 20 25 20 78 -1 18 -7 18 -8 2 -8 -34 -2 -15 -36 22 -39 27 -3 33 0
28 12 -10 24 49 21 70 -4 22 -25 74 -26 95 -2 9 9 21 34 28 55 10 32 9 42 -4
61 -21 33 -69 49 -93 31 -24 -19 -33 -18 -89 5 -44 19 -46 21 -28 35 19 15 19
15 -1 30 -26 21 -41 13 -37 -19 2 -16 -1 -26 -5 -23 -4 3 -28 10 -52 17 -40
10 -42 12 -25 26 18 14 18 14 -1 29 -26 21 -51 14 -48 -11 2 -19 -1 -20 -35
-14 -20 5 -53 11 -72 14 -34 6 -34 6 5 -8 34 -12 36 -14 15 -16 -22 -2 -20 -3
10 -11 19 -5 79 -21 133 -35 53 -15 97 -31 97 -36 0 -6 -8 -7 -17 -3 -10 3
-76 22 -147 40 -128 34 -156 44 -120 46 11 0 2 7 -20 15 -43 15 -63 11 -25 -6
17 -8 18 -9 4 -6 -37 7 -179 47 -187 52 -4 3 -8 -2 -8 -10z m333 -53 c-7 -2
-19 -2 -25 0 -7 3 -2 5 12 5 14 0 19 -2 13 -5z"/>
<path d="M18614 6455 c15 -8 33 -15 40 -15 16 1 -36 29 -54 30 -8 0 -2 -7 14
-15z"/>
<path d="M18440 6419 c0 -9 55 -26 115 -35 22 -4 52 -13 67 -20 15 -8 37 -14
50 -13 17 0 13 4 -17 15 -71 26 -215 62 -215 53z"/>
<path d="M18708 6343 c7 -3 16 -2 19 1 4 3 -2 6 -13 5 -11 0 -14 -3 -6 -6z"/>
<path d="M7127 6108 c-10 -121 -8 -337 3 -463 5 -60 12 -145 15 -188 3 -43 7
-83 11 -88 8 -14 -110 35 -190 78 -46 25 -106 91 -131 145 -21 45 -24 48 -34
31 -5 -11 -12 -31 -15 -44 -2 -13 -7 -42 -11 -63 -5 -22 -9 -47 -9 -55 -1 -9
-7 -47 -14 -86 -6 -38 -18 -149 -27 -245 -19 -210 -22 -925 -6 -1125 6 -71 11
-159 12 -195 2 -189 65 -575 139 -860 57 -218 104 -407 124 -502 12 -59 28
-114 35 -122 7 -8 26 -18 43 -21 l30 -7 -28 -29 c-29 -30 -87 -51 -234 -84
-96 -22 -154 -50 -185 -91 -32 -41 -33 -95 -4 -123 117 -109 724 -20 832 122
l27 36 -16 58 c-26 92 -33 157 -19 165 6 4 22 16 35 26 l24 19 -13 149 c-7 82
-19 199 -27 259 -26 203 -33 269 -39 360 -4 50 -13 131 -20 180 -34 216 -38
489 -9 537 3 4 16 51 30 104 25 101 75 218 168 401 55 106 56 107 57 68 1 -22
1 -44 0 -49 -3 -15 69 -317 95 -395 35 -107 66 -181 75 -176 4 3 5 -3 3 -12
-6 -25 68 -169 84 -165 8 1 11 -2 7 -7 -6 -10 13 -46 46 -86 137 -167 281
-315 357 -367 26 -17 59 -45 74 -61 15 -16 32 -26 38 -22 6 3 10 3 9 -2 -4
-21 2 -24 19 -12 15 13 16 12 4 -2 -11 -15 -9 -20 14 -38 24 -19 115 -100 208
-186 34 -31 67 -61 176 -155 35 -30 81 -74 103 -97 22 -24 44 -43 48 -43 5 0
30 -21 56 -48 85 -85 140 -124 163 -117 11 3 20 3 20 -1 0 -11 -60 -116 -76
-131 -116 -116 -160 -269 -90 -315 38 -25 146 18 244 98 67 55 219 225 254
286 33 55 68 158 68 197 0 30 -29 67 -94 117 -24 19 -26 24 -15 48 10 22 10
32 -3 59 -18 37 -134 192 -189 252 -20 22 -62 72 -94 110 -92 112 -362 380
-465 463 -52 42 -102 82 -110 89 -8 7 -37 27 -65 46 -32 22 -50 41 -49 53 2
32 14 85 41 184 14 52 29 115 34 140 4 25 12 59 17 75 5 17 17 66 27 110 9 44
21 96 26 116 13 52 41 207 45 253 3 22 9 56 14 75 38 144 100 881 73 881 -6 0
-13 -12 -16 -27 -8 -39 -46 -93 -83 -118 -30 -20 -244 -95 -369 -130 -33 -9
-83 -23 -111 -31 -49 -13 -104 -19 -104 -10 0 3 -11 65 -24 138 -14 73 -27
160 -31 193 -3 33 -10 85 -15 115 -5 30 -12 89 -15 130 -10 149 -13 157 -52
165 -20 3 -39 3 -43 -2 -4 -4 -4 -44 1 -88 4 -44 10 -127 13 -185 5 -94 17
-183 46 -349 6 -30 10 -76 10 -102 0 -47 0 -47 -37 -52 -21 -2 -148 -4 -283
-3 -191 2 -256 6 -295 18 -27 9 -77 21 -109 27 -32 6 -60 12 -62 14 -6 6 -31
160 -45 272 -7 55 -15 210 -18 345 l-6 245 -46 3 -46 3 -6 -83z m971 -2643
c-3 -3 -9 2 -12 12 -6 14 -5 15 5 6 7 -7 10 -15 7 -18z m353 -322 c13 -16 12
-17 -3 -4 -10 7 -18 15 -18 17 0 8 8 3 21 -13z m124 -103 c3 -6 -1 -7 -9 -4
-18 7 -21 14 -7 14 6 0 13 -4 16 -10z m159 -148 c3 -5 -1 -9 -9 -9 -8 0 -12 4
-9 9 3 4 7 8 9 8 2 0 6 -4 9 -8z"/>
<path d="M2435 5888 c-15 -50 -65 -266 -65 -286 0 -13 -6 -50 -14 -81 -8 -31
-18 -76 -21 -101 -3 -25 -12 -72 -20 -105 -7 -33 -16 -89 -20 -125 -7 -77 -16
-131 -51 -305 -35 -174 -40 -199 -63 -280 -41 -151 -51 -184 -96 -310 -26 -71
-49 -141 -52 -155 -10 -48 -151 -327 -202 -399 -57 -80 -101 -170 -101 -209 0
-16 12 -36 36 -56 20 -17 64 -56 97 -87 93 -83 192 -143 292 -177 79 -26 106
-30 210 -31 278 -3 365 -18 570 -96 98 -37 230 -72 306 -80 64 -7 262 7 349
25 25 5 61 12 80 14 77 11 179 39 260 70 47 19 110 42 140 51 30 10 74 25 97
33 l42 14 7 67 c4 36 2 152 -5 256 -6 105 -11 231 -11 280 0 87 -14 250 -46
540 -8 77 -17 160 -19 184 -3 24 -10 71 -16 104 -6 34 -13 81 -15 106 -2 24
-8 60 -13 80 -5 20 -12 54 -16 76 -3 22 -12 74 -19 115 -15 77 -34 191 -42
251 -3 19 -9 57 -15 84 -5 28 -12 68 -14 89 -3 22 -12 64 -20 95 -8 31 -16 72
-19 91 -11 87 -54 213 -71 206 -121 -55 -158 -65 -322 -91 -13 -2 -60 -11
-105 -21 -64 -13 -136 -17 -318 -18 -216 -1 -243 1 -335 23 -55 14 -131 37
-169 53 -66 27 -166 93 -166 110 0 13 -20 9 -25 -4z m1271 -309 c20 -19 21
-19 59 1 44 22 105 26 123 8 18 -18 14 -63 -7 -82 -16 -15 -18 -27 -14 -71 6
-52 5 -54 -27 -73 -26 -16 -38 -18 -61 -10 -16 5 -29 15 -29 21 0 7 -11 -5
-25 -24 -29 -43 -46 -52 -80 -39 -42 16 -51 51 -27 102 l22 42 -25 26 c-31 33
-33 82 -4 111 24 24 61 20 95 -12z m-733 -240 c27 -42 -27 -140 -86 -154 -25
-7 -27 -5 -27 21 0 16 4 45 9 64 5 19 12 48 15 63 6 25 10 28 43 25 20 -2 40
-10 46 -19z m-213 -19 c23 -23 24 -29 10 -65 -10 -26 -50 -48 -84 -47 -28 1
-56 32 -56 62 0 58 88 92 130 50z m1186 -375 c94 -72 99 -174 13 -236 -31 -22
-31 -22 -12 -38 43 -34 73 -94 73 -144 0 -61 -20 -99 -65 -126 -44 -26 -65
-27 -66 -3 0 13 -2 12 -9 -5 -5 -13 -13 -23 -17 -23 -30 0 -89 26 -119 52 -32
28 -36 29 -52 15 -26 -24 -103 -57 -134 -57 -18 0 -41 13 -67 38 -31 29 -41
47 -46 86 -13 84 28 171 95 198 24 10 22 11 -25 22 -65 16 -74 22 -91 61 -34
83 64 191 166 181 48 -5 66 -17 74 -52 l7 -25 41 35 c69 60 171 69 234 21z
m-1163 -517 c69 -36 84 -102 42 -175 l-26 -43 24 -9 c55 -21 74 -160 30 -219
-47 -63 -137 -96 -199 -73 -30 11 -38 11 -45 0 -14 -22 -10 -5 10 53 26 70 74
248 102 376 13 56 27 102 32 102 4 0 18 -5 30 -12z m-228 -192 c36 -15 65 -59
65 -98 0 -33 -45 -95 -82 -114 -70 -36 -135 -12 -163 61 -19 52 -14 78 24 119
44 47 94 58 156 32z m706 -192 c17 -15 20 -15 44 0 16 11 41 16 63 14 33 -3
37 -6 40 -34 2 -18 -3 -36 -12 -43 -10 -8 -13 -23 -9 -47 9 -55 -41 -93 -86
-65 -9 6 -22 -1 -41 -22 -25 -28 -30 -30 -54 -19 -20 9 -26 19 -26 44 0 18 4
40 10 48 6 10 3 24 -11 46 -23 38 -24 52 -2 76 20 22 61 23 84 2z m757 -250
c15 -11 22 -25 22 -50 0 -23 5 -34 14 -34 8 0 28 -12 45 -26 44 -37 43 -82 -3
-122 -18 -16 -50 -32 -70 -36 -32 -6 -36 -10 -36 -37 0 -27 -24 -99 -33 -99
-1 0 -2 37 -2 83 2 104 0 111 -30 81 -21 -21 -36 -27 -61 -23 -16 2 -23 -31
-23 -99 1 -41 -1 -76 -4 -79 -9 -8 -25 30 -29 67 -4 42 -9 44 -70 31 -89 -20
-160 34 -142 107 10 42 54 70 124 79 37 5 38 7 29 31 -15 38 6 87 47 113 52
32 68 20 61 -45 l-5 -54 30 5 c20 3 36 -1 49 -13 18 -16 19 -16 20 7 1 13 1
43 -1 66 -1 23 1 47 5 53 9 15 37 12 63 -6z m-1381 -199 l18 -26 43 23 c39 21
44 22 69 7 23 -12 28 -22 27 -50 -1 -18 -5 -44 -9 -56 -6 -18 -3 -23 9 -23 26
0 20 -56 -8 -85 -34 -34 -71 -41 -112 -22 -31 15 -34 15 -46 -1 -38 -53 -98
-66 -142 -31 -21 16 -26 29 -26 62 1 47 13 67 52 84 25 11 27 15 18 39 -29 76
61 142 107 79z"/>
<path d="M16150 5876 c38 -14 46 -13 35 3 -3 6 -21 11 -38 10 l-32 -1 35 -12z"/>
<path d="M10395 4448 c-15 -47 -45 -152 -45 -159 0 -5 16 -9 35 -9 19 0 81 -7
137 -15 55 -9 103 -13 105 -11 3 3 6 44 6 92 l2 88 -85 12 c-109 17 -150 17
-155 2z"/>
<path d="M10188 4076 c-42 -24 -95 -47 -117 -51 -56 -9 -118 3 -141 27 -17 18
-22 19 -57 8 -21 -7 -64 -26 -96 -42 -56 -28 -58 -30 -44 -51 8 -12 36 -31 63
-41 99 -39 250 -19 437 57 l82 33 3 52 c3 51 3 52 -25 52 -15 0 -63 -20 -105
-44z"/>
<path d="M10695 4010 c-70 -39 -100 -50 -135 -50 -62 0 -120 17 -120 36 0 12
-7 14 -32 9 -50 -11 -163 -70 -163 -86 0 -40 145 -87 232 -74 44 6 144 31 218
54 53 16 129 52 137 64 9 15 10 59 2 81 -10 26 -45 18 -139 -34z"/>
<path d="M3296 2214 c-3 -9 -3 -21 1 -26 3 -7 1 -8 -5 -4 -16 9 -27 -43 -24
-105 2 -33 65 -104 83 -94 8 5 10 4 5 -4 -13 -21 102 -108 204 -155 89 -41
157 -54 262 -52 95 2 98 3 128 34 16 17 30 40 30 49 0 38 -103 119 -119 95
-29 -41 -98 -53 -171 -27 -23 8 -46 12 -51 9 -5 -3 -9 0 -9 6 0 6 -4 8 -10 5
-5 -3 -10 -2 -10 2 0 5 -24 21 -52 36 -79 42 -175 122 -206 173 -16 24 -32 41
-36 37 -4 -4 -4 0 -1 9 4 9 2 19 -3 22 -6 3 -13 -1 -16 -10z"/>
<path d="M1320 2163 c-68 -7 -126 -15 -128 -18 -2 -2 -6 -22 -8 -45 -2 -23 -9
-60 -15 -82 -6 -22 -13 -59 -15 -82 -3 -22 -9 -56 -14 -75 -9 -34 -6 -51 10
-51 5 0 39 31 77 68 38 38 100 93 139 124 38 31 98 84 133 117 l64 61 -59 -1
c-32 -1 -115 -8 -184 -16z"/>
<path d="M17491 2138 c19 -18 51 -47 70 -63 19 -17 54 -49 78 -70 l44 -40 -6
45 c-3 25 -11 66 -17 92 l-12 47 -57 6 c-31 3 -74 8 -96 11 l-40 5 36 -33z"/>
<path d="M15924 710 c1 -178 -8 -207 -80 -247 -81 -46 -161 -20 -210 70 -24
44 -29 65 -30 135 -2 46 -4 86 -6 88 -3 2 -12 -28 -23 -67 -10 -39 -23 -72
-29 -74 -6 -2 -90 -10 -186 -19 -232 -22 -356 -42 -524 -82 -196 -48 -296 -97
-296 -147 0 -49 109 -106 280 -146 93 -22 362 -67 450 -75 30 -3 136 -13 235
-23 260 -25 1347 -25 1605 0 96 9 209 19 250 22 41 3 102 10 135 16 33 5 74
12 90 15 17 3 62 11 100 19 39 8 97 19 130 25 99 18 104 20 170 46 100 40 137
90 101 136 -14 19 -130 76 -168 83 -12 3 -56 16 -96 30 -68 24 -168 42 -267
50 -253 19 -241 15 -268 95 -15 45 -67 142 -67 127 0 -5 7 -34 16 -65 19 -65
15 -152 -10 -200 -20 -38 -86 -75 -136 -75 -49 0 -114 36 -138 75 -12 19 -30
81 -42 138 -37 189 -38 191 -32 72 l5 -113 -79 8 c-43 4 -251 8 -460 8 l-382
0 -6 40 c-3 22 -12 74 -20 115 l-14 75 2 -155z"/>
</g>
</svg>
